<svg data-id='11' width="97" height="257" viewBox="0 0 97 257" fill="none" xmlns="http://www.w3.org/2000/svg">
    <path class='coroa' d="M94.344 208.833C91.344 174.333 87.4276 169.723 84.844 166.833C57.9392 136.742 43.6134 131.959 27.344 140.833C17.3215 146.3 13.3869 154.718 10.7217 163.623C8.99917 169.379 7.80687 175.337 5.84399 180.833C0.843975 194.833 -1.65601 235.833 3.84399 245.333C9.34399 254.833 28.344 255.333 36.844 255.333C45.344 255.333 74.344 254.333 81.844 255.333C89.344 256.333 96.344 255.833 96.344 250.833C96.344 245.833 97.344 243.333 94.344 208.833Z" stroke="black" />
    <path class='raiz' d="M84.844 166.833C84.444 164.033 80.6773 138.666 78.844 126.333C78.844 120.333 73.844 110.833 64.844 71.3329C50.7319 39.3329 48.2319 39.8329 42.344 19.3329C34.2319 -3.16711 13.344 -4.1671 13.344 10.3329C13.344 24.8329 19.844 37.8329 13.344 68.3329C8.14401 92.7329 9.51067 140.833 10.844 161.833L10.7217 163.623C13.3869 154.718 17.3215 146.3 27.344 140.833C43.6134 131.959 56.48 135.724 83.6788 165.549M84.844 166.833C84.4527 166.4 84.0643 165.972 83.6788 165.549M84.844 166.833L83.6788 165.549" stroke="black" />
</svg>