<svg data-id='12' width="81" height="254" viewBox="0 0 81 254" fill="none" xmlns="http://www.w3.org/2000/svg">
    <path class='coroa' d="M74.2604 251.752C83.2604 248.252 80.2604 214.252 71.7604 187.252C67.9639 175.193 66.4616 169.817 65.3823 164.752C45.486 142.43 24.9648 145.824 22.7603 148.752C19.6694 150.572 15.643 158.245 14.0162 161.854C5.69956 179.512 -2.59601 210.286 1.76035 230.252C13.7604 255.252 65.2604 255.252 74.2604 251.752Z" stroke="black" />
     <path class='raiz' stroke="black" d="M11.2604 64.2527C9.26037 85.0527 11.5937 139.829 13.2603 163.496C13.2603 163.496 14.0964 161.241 15 159.5C16.127 157.328 17.0822 155.494 18.5 153.5C19.7029 151.808 20.5323 150.968 22 149.5C23.5 148 24 147.586 26 147C28.4358 146.286 30.9719 146.271 33.5 146.5C37.0858 146.825 39.098 147.321 42.5 148.5C45.554 149.558 47.1999 150.386 50 152C52.6746 153.542 54.0722 154.593 56.5 156.5C60.0845 159.316 65 164 65.5 164.5C66 165 59.7604 135.253 59.7604 135.253C56.2604 103.253 41.7604 31.7526 30.7604 12.7526C19.7604 -6.24735 14.7604 1.25265 14.7604 11.7526C16.2607 44.2526 13.7604 38.2527 11.2604 64.2527Z"/>
</svg>