<svg data-id='13' width="87" height="294" viewBox="0 0 87 294" fill="none" xmlns="http://www.w3.org/2000/svg">
    <path class='coroa' d="M5.83392 235.772C-2.16608 253.272 1.33392 260.272 5.83392 268.272C10.3339 276.272 18.8339 279.272 28.3339 286.272C37.8339 293.272 48.3339 295.272 54.8339 291.772C61.3339 288.272 69.3339 283.772 79.3339 273.272C89.3339 262.772 85.3339 250.272 80.8339 230.272C78.4339 213.872 72.8339 203.438 70.3339 200.272C39.8339 169.272 32.334 184.272 28.3339 187.272M5.83392 235.772C13.8339 218.272 24.3339 190.272 28.3339 187.272M5.83392 235.772C9.53294 227.68 13.7664 217.344 17.6447 208.272C22.1542 197.723 26.1834 188.884 28.3339 187.272" stroke="black" />
    <path class='raiz' d="M12.8339 118.271C12.4339 135.872 15.8113 184.938 17.6447 208.272C22.1541 197.723 26.1833 188.884 28.3339 187.272C32.3339 184.272 39.8338 169.272 70.3339 200.272C70.3339 177.272 66.8339 147.272 65.3339 137.772C63.8339 128.272 54.8339 96.2715 48.8339 69.2715C45.3339 42.7715 40.8339 30.2715 30.8339 9.77151C16.8339 -13.7285 14.3339 16.2715 15.3339 26.7715C16.3339 37.2715 13.3339 96.2715 12.8339 118.271Z" stroke="black" />
</svg>