<svg data-id="14" width="78" height="243" viewBox="0 0 78 243" fill="none" xmlns="http://www.w3.org/2000/svg">
    <path class="coroa" d="M72.4782 224.366C80.9782 205.866 76.4782 199.866 68.4782 175.366C67.4776 171.47 65.4355 165.512 62.3826 160.437C58.8683 154.595 53.9819 149.289 47.834 148.059C40.523 147.145 35.4786 150.261 31.4783 153.866C23.9783 159.866 7.97818 190.366 2.97818 201.866C-2.02182 213.366 6.47818 224.866 14.4782 228.866C22.4782 232.866 22.9782 233.866 33.9782 240.366C44.9782 246.866 54.4782 235.866 56.4782 233.866C58.4782 231.866 66.4782 231.366 72.4782 224.366Z" stroke="black" style="fill: rgb(255, 255, 240);"></path>
    <path class="raiz" d="M21.2644 79.4337C17.2644 100.234 18.2386 150.1 19.2386 171.434C23.0794 162.451 29.3326 155.524 32.3759 153.089C35.5018 150.546 40.9582 146.844 48.0534 148.1C52.9188 149.043 63.4207 155.418 68.6302 175.821C68.5561 125.379 53.7542 61.3953 49.7645 46.4337C45.7645 31.4337 41.7645 25.9337 38.7645 13.4337C35.7645 0.933737 31.7645 -0.0662631 28.2645 1.93374C24.7645 3.93374 26.7861 11.5663 27.2861 19.0663C27.4969 22.2271 26.7186 37.2724 26.7186 37.2724C26.3683 42.1682 25.8423 47.8904 25.1646 53.7623C24.7743 57.024 22.4177 72.136 21.2644 79.4337Z" stroke="black" style="fill: rgb(245, 245, 220);"></path>
    <path class="raiz" d="M27.2645 18.9339C10.7644 -3.0661 19.7646 74.9339 21.2644 79.4339C22.4177 72.1362 24.7743 57.0242 25.1646 53.7625L26.7186 37.2726C27.3307 28.7192 27.4752 22.0948 27.2645 18.9339Z" stroke="black" style="fill: rgb(245, 245, 220);"></path>
</svg>