<svg data-id="15" width="79" height="258" viewBox="0 0 79 258" fill="none" xmlns="http://www.w3.org/2000/svg">
    <path class="raiz" d="M24.2852 65.9937C20.2852 89.1937 17.6185 153.66 16.7852 182.994C18.5769 181.084 25.9441 163.015 43.346 159.331C47.5504 158.096 58.5245 161.299 68.7852 183.994C70.2852 160.994 60.7852 37.9937 46.2852 12.9937C31.7852 -12.0063 28.7852 9.9937 28.7852 12.4937C28.7852 14.9937 29.2852 36.9937 24.2852 65.9937Z" stroke="black" style="fill: rgb(245, 245, 220);"></path>
    <path class="coroa" d="M6.28521 237.994C-6.11479 224.394 8.11855 195.66 16.7852 182.994C22.7852 171.494 38.6852 151.394 54.2852 162.994C73.7852 181.994 72.2852 200.994 77.2852 219.994C82.2852 238.994 70.2852 240.494 66.2852 242.494C62.2852 244.494 58.2852 247.994 51.7852 252.994C45.2852 257.994 40.7852 257.494 36.7852 256.994C32.7852 256.494 29.2852 252.994 25.2852 250.494C21.2852 247.994 16.7852 248.494 6.28521 237.994Z" stroke="black" style="fill: rgb(255, 255, 240);"></path>
</svg>