<svg data-id="16" width="131" height="263" viewBox="0 0 131 263" fill="none" xmlns="http://www.w3.org/2000/svg">
    <path class="coroa" d="M67.1634 243.452C72.6634 243.452 83.1634 258.34 92.6634 260.452C100.663 262.229 113.663 264.952 124.663 247.952C135.663 230.952 128.163 215.952 124.663 206.452C122.212 199.798 119.025 195.597 117.679 175.468L113.164 172.452C102.164 165.452 78.6635 168.452 72.6635 168.452C69.0635 166.852 66.6635 167.452 64.1635 168.452C60.1635 168.952 63.4635 168.452 48.6635 168.452C30.6635 167.952 23.8302 172.952 22.1635 176.452C21.6127 178.042 20.0014 181.219 17.9622 181.202C14.824 192.566 9.71821 198.35 1.6633 219.952C-4.83645 261.952 24.6635 249.452 28.1633 249.452C29.0077 249.452 29.8395 249.553 30.6635 249.731M67.1634 243.452C61.6634 243.452 59.6635 254.535 51.1634 255.952C43.1767 257.283 37.1585 251.133 30.6635 249.731M67.1634 243.452V234.952M30.6635 249.731L22.1635 242.452" stroke="black" style="fill: rgb(255, 255, 240);"></path>
    <path class="raiz" d="M23.1634 71.9516C22.6634 75.4516 23.1634 140.452 20.6634 165.452C19.994 172.145 19.1096 177.047 17.9622 181.202C20.0013 181.219 21.6127 178.042 22.1635 176.452C23.8302 172.952 30.6635 167.952 48.6635 168.452C63.4635 168.452 60.1635 168.952 64.1635 168.452C66.6635 167.452 69.0635 166.852 72.6635 168.452C78.6635 168.452 102.164 165.452 113.164 172.452L117.679 175.468C117.103 166.857 116.864 155.331 117.163 139.452C118.163 86.4516 108.163 71.9516 106.163 67.9516C104.163 63.9516 87.6634 37.4516 85.6634 20.9516C83.6634 4.4516 74.6634 -7.5484 69.6634 9.4516C64.6634 32.4516 69.1634 43.4516 79.6634 70.4516C84.6634 100.452 76.6634 108.952 74.6634 109.452C72.6634 109.952 54.1634 112.452 53.6634 65.9516C53.1634 19.4516 49.1634 16.4516 43.1634 6.45158C37.1634 -3.54842 32.1634 1.95158 32.1634 4.45158C32.1634 6.95158 34.1635 20.4516 32.1634 27.4516C31.6634 30.4516 22.1635 61.4516 23.1634 71.9516Z" stroke="black" style="fill: rgb(245, 245, 220);"></path>
</svg>