<svg data-id="18" width="120" height="236" viewBox="0 0 120 236" fill="none" xmlns="http://www.w3.org/2000/svg">
    <path class="coroa" d="M58.4048 219.012C64.9048 219.512 64.4048 224.935 75.4048 230.012C88.4048 236.012 99.9048 238.512 109.905 230.012C125.905 214.012 115.905 194.012 114.405 188.512C112.905 183.012 106.905 180.012 103.905 155.012C103.833 154.416 103.767 153.826 103.705 153.241C94.2048 142.741 79.726 149.175 77.726 149.675C75.726 150.175 66.726 150.175 65.226 150.175C63.726 150.175 61.226 147.675 56.726 147.675C52.226 147.675 53.226 151.675 39.726 151.175C28.926 150.775 19.7183 152.694 16.7183 154.694C13.8097 170.435 6.63722 175.643 2.9047 186.012C-1.5953 198.512 2.4047 216.512 9.4047 222.012C14.2756 225.839 22.6196 221.572 30.6322 222.37M58.4048 219.012C50.4048 220.012 46.695 229.113 34.195 223.113C33.0234 222.723 31.8315 222.49 30.6322 222.37M58.4048 219.012V209.512M30.6322 222.37L25.4591 215.49" stroke="black" style="fill: rgb(255, 255, 240);"></path>
    <path class="raiz" d="M17.7883 145.769C18.7883 120.769 17.9047 69.0118 31.9047 17.0118C40.4047 -9.48825 50.9047 4.01175 50.9047 14.5118C50.9047 25.0118 50.9047 45.5118 62.4047 70.0118C68.9047 85.0118 69.4047 88.5118 69.9047 93.0118C70.4047 97.5118 75.4048 99.0118 75.4048 87.5118C75.4048 76.0118 75.4048 64.0118 75.4048 61.0118C75.4048 53.5117 73.4047 52.0118 63.9047 35.5118C57.4047 17.0117 63.4047 0.0117538 68.4047 1.01175C73.4047 2.01175 76.4048 11.5117 78.4048 18.5117C80.2619 25.0117 92.9047 32.0117 99.4047 48.5117C106.405 66.5117 107.405 74.5117 106.905 94.0117C106.417 113.048 101.164 129.224 103.705 153.241C94.2047 142.741 79.7259 149.175 77.7259 149.675C75.7259 150.175 66.7259 150.175 65.2259 150.175C63.7259 150.175 61.2259 147.675 56.7259 147.675C52.2259 147.675 53.2259 151.675 39.7259 151.175C28.9259 150.775 19.7183 152.694 16.7183 154.694C17.2082 152.043 17.5771 149.093 17.7883 145.769ZM17.7883 145.769C17.8349 145.035 17.7575 146.54 17.7883 145.769Z" stroke="black" style="fill: rgb(245, 245, 220);"></path>
  </svg>