<svg data-id='21' width="98" height="257" viewBox="0 0 98 257" fill="none" xmlns="http://www.w3.org/2000/svg">
    <path class='coroa' d="M3.15992 208.833C6.15992 174.333 10.0763 169.723 12.6599 166.833C39.5648 136.742 53.8905 131.959 70.1599 140.833C80.1824 146.3 84.117 154.718 86.7822 163.623C88.5047 169.379 89.697 175.337 91.6599 180.833C96.6599 194.833 99.1599 235.833 93.6599 245.333C88.1599 254.833 69.1599 255.333 60.6599 255.333C52.1599 255.333 23.1599 254.333 15.6599 255.333C8.15992 256.333 1.15992 255.833 1.15992 250.833C1.15992 245.833 0.15992 243.333 3.15992 208.833Z" stroke="black" />
    <path class='raiz' d="M12.6599 166.833C13.0599 164.033 16.8266 138.666 18.6599 126.333C18.6599 120.333 23.6599 110.833 32.6599 71.3329C46.772 39.3329 49.272 39.8329 55.1599 19.3329C63.272 -3.16711 84.1599 -4.1671 84.1599 10.3329C84.1599 24.8329 77.6599 37.8329 84.1599 68.3329C89.3599 92.7329 87.9932 140.833 86.6599 161.833L86.7822 163.623C84.117 154.718 80.1824 146.3 70.1599 140.833C53.8905 131.959 41.024 135.724 13.8251 165.549M12.6599 166.833C13.0512 166.4 13.4396 165.972 13.8251 165.549M12.6599 166.833L13.8251 165.549" stroke="black" />
</svg>