<svg data-id='22' width="81" height="254" viewBox="0 0 81 254" fill="none" xmlns="http://www.w3.org/2000/svg">
    <path class='coroa' d="M6.24355 251.752C-2.75645 248.252 0.243553 214.252 8.74355 187.252C12.54 175.193 14.0423 169.817 15.1217 164.752C35.0179 142.43 55.5391 145.824 57.7436 148.752C60.8345 150.572 64.8609 158.245 66.4877 161.854C74.8043 179.512 83.0999 210.286 78.7436 230.252C66.7436 255.252 15.2436 255.252 6.24355 251.752Z" stroke="black" />
    <path class='raiz' stroke="black" d="M69.7396 64.2527C71.7396 85.0527 69.4063 139.829 67.7397 163.496C67.7397 163.496 66.9036 161.241 66 159.5C64.873 157.328 63.9178 155.494 62.5 153.5C61.2971 151.808 60.4677 150.968 59 149.5C57.5 148 57 147.586 55 147C52.5642 146.286 50.0281 146.271 47.5 146.5C43.9142 146.825 41.902 147.321 38.5 148.5C35.446 149.558 33.8001 150.386 31 152C28.3254 153.542 26.9278 154.593 24.5 156.5C20.9155 159.316 16 164 15.5 164.5C15 165 21.2396 135.253 21.2396 135.253C24.7396 103.253 39.2396 31.7526 50.2396 12.7526C61.2396 -6.24735 66.2396 1.25265 66.2396 11.7526C64.7393 44.2526 67.2396 38.2527 69.7396 64.2527Z"/>
</svg>