<svg data-id='23' width="86" height="294" viewBox="0 0 86 294" fill="none" xmlns="http://www.w3.org/2000/svg">
    <path class='coroa' d="M80.67 235.772C88.67 253.272 85.17 260.272 80.67 268.272C76.17 276.272 67.67 279.272 58.17 286.272C48.67 293.272 38.17 295.272 31.67 291.772C25.17 288.272 17.17 283.772 7.16998 273.272C-2.83002 262.772 1.16998 250.272 5.66998 230.272C8.06998 213.872 13.67 203.438 16.17 200.272C46.67 169.272 54.1699 184.272 58.17 187.272M80.67 235.772C72.67 218.272 62.1701 190.272 58.17 187.272M80.67 235.772C76.971 227.68 72.7375 217.344 68.8592 208.272C64.3497 197.723 60.3205 188.884 58.17 187.272" stroke="black" />
    <path class='raiz' d="M73.67 118.271C74.07 135.872 70.6926 184.938 68.8592 208.272C64.3498 197.723 60.3206 188.884 58.1701 187.272C54.17 184.272 46.6701 169.272 16.17 200.272C16.17 177.272 19.67 147.272 21.17 137.772C22.67 128.272 31.6701 96.2715 37.6701 69.2715C41.1701 42.7715 45.6701 30.2715 55.6701 9.77151C69.6701 -13.7285 72.1701 16.2715 71.1701 26.7715C70.1701 37.2715 73.17 96.2715 73.67 118.271Z" stroke="black" />
</svg>