<svg data-id='24' width="78" height="243" viewBox="0 0 78 243" fill="none" xmlns="http://www.w3.org/2000/svg">
    <path class='coroa' d="M6.02573 224.366C-2.47427 205.866 2.02573 199.866 10.0257 175.366C11.0264 171.47 13.0684 165.512 16.1213 160.437C19.6356 154.595 24.522 149.289 30.6699 148.059C37.9809 147.145 43.0253 150.261 47.0256 153.866C54.5256 159.866 70.5257 190.366 75.5257 201.866C80.5257 213.366 72.0257 224.866 64.0257 228.866C56.0257 232.866 55.5257 233.866 44.5257 240.366C33.5257 246.866 24.0257 235.866 22.0257 233.866C20.0257 231.866 12.0257 231.366 6.02573 224.366Z" stroke="black" />
    <path class='raiz' d="M57.2395 79.4337C61.2395 100.234 60.2653 150.1 59.2653 171.434C55.4245 162.451 49.1714 155.524 46.128 153.089C43.0021 150.546 37.5457 146.844 30.4505 148.1C25.5851 149.043 15.0832 155.418 9.87373 175.821C9.94779 125.379 24.7497 61.3953 28.7394 46.4337C32.7394 31.4337 36.7394 25.9337 39.7394 13.4337C42.7394 0.933737 46.7394 -0.0662631 50.2394 1.93374C53.7394 3.93374 51.7178 11.5663 51.2178 19.0663C51.007 22.2271 51.7853 37.2724 51.7853 37.2724C52.1356 42.1682 52.6616 47.8904 53.3393 53.7623C53.7296 57.024 56.0862 72.136 57.2395 79.4337Z" stroke="black" />
    <path class='raiz' d="M51.2394 18.9339C67.7395 -3.0661 58.7393 74.9339 57.2395 79.4339C56.0862 72.1362 53.7296 57.0242 53.3393 53.7625L51.7853 37.2726C51.1732 28.7192 51.0287 22.0948 51.2394 18.9339Z" stroke="black" />
</svg>