<svg data-id="25" width="79" height="258" viewBox="0 0 79 258" fill="none" xmlns="http://www.w3.org/2000/svg">
    <path class="raiz" d="M55.2188 65.9937C59.2188 89.1937 61.8854 153.66 62.7188 182.994C60.927 181.084 53.5598 163.015 36.1579 159.331C31.9535 158.096 20.9794 161.299 10.7188 183.994C9.21875 160.994 18.7188 37.9937 33.2188 12.9937C47.7188 -12.0063 50.7188 9.9937 50.7188 12.4937C50.7188 14.9937 50.2188 36.9937 55.2188 65.9937Z" stroke="black" style="fill: rgb(245, 245, 220);"></path>
    <path class="coroa" d="M73.2187 237.994C85.6187 224.394 71.3854 195.66 62.7187 182.994C56.7187 171.494 40.8187 151.394 25.2188 162.994C5.71875 181.994 7.21875 200.994 2.21875 219.994C-2.78125 238.994 9.21875 240.494 13.2188 242.494C17.2188 244.494 21.2188 247.994 27.7188 252.994C34.2188 257.994 38.7188 257.494 42.7188 256.994C46.7188 256.494 50.2188 252.994 54.2188 250.494C58.2188 247.994 62.7187 248.494 73.2187 237.994Z" stroke="black" style="fill: rgb(255, 255, 240);"></path>
</svg>