<svg data-id='26' width="132" height="263" viewBox="0 0 132 263" fill="none" xmlns="http://www.w3.org/2000/svg">
    <path class='coroa' d="M64.3405 243.452C58.8405 243.452 48.3405 258.34 38.8405 260.452C30.8405 262.229 17.8405 264.952 6.84051 247.952C-4.15949 230.952 3.34051 215.952 6.84051 206.452C9.29187 199.798 12.479 195.597 13.8252 175.468L18.3404 172.452C29.3404 165.452 52.8404 168.452 58.8404 168.452C62.4404 166.852 64.8404 167.452 67.3404 168.452C71.3404 168.952 68.0404 168.452 82.8404 168.452C100.84 167.952 107.674 172.952 109.34 176.452C109.891 178.042 111.503 181.219 113.542 181.202C116.68 192.566 121.786 198.35 129.841 219.952C136.34 261.952 106.84 249.452 103.341 249.452C102.496 249.452 101.664 249.553 100.84 249.731M64.3405 243.452C69.8405 243.452 71.8404 254.535 80.3405 255.952C88.3272 257.283 94.3454 251.133 100.84 249.731M64.3405 243.452V234.952M100.84 249.731L109.34 242.452" stroke="black" />
    <path class='raiz' d="M108.341 71.9516C108.841 75.4516 108.341 140.452 110.841 165.452C111.51 172.145 112.394 177.047 113.542 181.202C111.503 181.219 109.891 178.042 109.34 176.452C107.674 172.952 100.84 167.952 82.8404 168.452C68.0404 168.452 71.3404 168.952 67.3404 168.452C64.8404 167.452 62.4404 166.852 58.8404 168.452C52.8404 168.452 29.3404 165.452 18.3404 172.452L13.8253 175.468C14.4011 166.857 14.6401 155.331 14.3405 139.452C13.3405 86.4516 23.3405 71.9516 25.3405 67.9516C27.3405 63.9516 43.8405 37.4516 45.8405 20.9516C47.8405 4.4516 56.8405 -7.5484 61.8405 9.4516C66.8405 32.4516 62.3405 43.4516 51.8405 70.4516C46.8405 100.452 54.8405 108.952 56.8405 109.452C58.8405 109.952 77.3405 112.452 77.8405 65.9516C78.3405 19.4516 82.3405 16.4516 88.3405 6.45158C94.3405 -3.54842 99.3405 1.95158 99.3405 4.45158C99.3405 6.95158 97.3404 20.4516 99.3405 27.4516C99.8405 30.4516 109.34 61.4516 108.341 71.9516Z" stroke="black" />
</svg>