<svg data-id='27' width="119" height="236" viewBox="0 0 119 236" fill="none" xmlns="http://www.w3.org/2000/svg">
    <path class='coroa' d="M61.0992 219.012C54.5992 219.512 55.0992 224.935 44.0992 230.012C31.0992 236.012 19.5992 238.512 9.59921 230.012C-6.40079 214.012 3.5992 194.012 5.0992 188.512C6.5992 183.012 12.5992 180.012 15.5992 155.012C15.6706 154.416 15.7372 153.826 15.7992 153.241C25.2992 142.741 39.7781 149.175 41.7781 149.675C43.7781 150.175 52.7781 150.175 54.2781 150.175C55.7781 150.175 58.2781 147.675 62.7781 147.675C67.2781 147.675 66.2781 151.675 79.7781 151.175C90.5781 150.775 99.7857 152.694 102.786 154.694C105.694 170.435 112.867 175.643 116.599 186.012C121.099 198.512 117.099 216.512 110.099 222.012C105.228 225.839 96.8845 221.572 88.8718 222.37M61.0992 219.012C69.0992 220.012 72.8091 229.113 85.309 223.113C86.4807 222.723 87.6725 222.49 88.8718 222.37M61.0992 219.012V209.512M88.8718 222.37L94.0449 215.49" stroke="black" />
    <path class='raiz' d="M101.716 145.769C100.716 120.769 101.599 69.0118 87.5993 17.0118C79.0993 -9.48825 68.5993 4.01175 68.5993 14.5118C68.5993 25.0118 68.5993 45.5118 57.0993 70.0118C50.5993 85.0118 50.0993 88.5118 49.5993 93.0118C49.0993 97.5118 44.0993 99.0118 44.0993 87.5118C44.0993 76.0118 44.0993 64.0118 44.0993 61.0118C44.0993 53.5117 46.0993 52.0118 55.5993 35.5118C62.0993 17.0117 56.0993 0.0117538 51.0993 1.01175C46.0993 2.01175 43.0993 11.5117 41.0993 18.5117C39.2421 25.0117 26.5993 32.0117 20.0993 48.5117C13.0993 66.5117 12.0993 74.5117 12.5993 94.0117C13.0874 113.048 18.3403 129.224 15.7993 153.241C25.2993 142.741 39.7782 149.175 41.7782 149.675C43.7782 150.175 52.7782 150.175 54.2782 150.175C55.7782 150.175 58.2782 147.675 62.7782 147.675C67.2782 147.675 66.2782 151.675 79.7782 151.175C90.5782 150.775 99.7858 152.694 102.786 154.694C102.296 152.043 101.927 149.093 101.716 145.769ZM101.716 145.769C101.669 145.035 101.747 146.54 101.716 145.769Z" stroke="black" />
</svg>