<svg data-id="28" width="119" height="236" viewBox="0 0 119 236" fill="none" xmlns="http://www.w3.org/2000/svg">
    <path class="coroa" d="M61.0991 219.012C54.5991 219.512 55.0991 224.935 44.0991 230.012C31.0991 236.012 19.5991 238.512 9.59909 230.012C-6.40091 214.012 3.59908 194.012 5.09908 188.512C6.59908 183.012 12.5991 180.012 15.5991 155.012C15.6705 154.416 15.7371 153.826 15.7991 153.241C25.2991 142.741 39.778 149.175 41.778 149.675C43.778 150.175 52.778 150.175 54.278 150.175C55.778 150.175 58.278 147.675 62.778 147.675C67.278 147.675 66.278 151.675 79.778 151.175C90.578 150.775 99.7856 152.694 102.786 154.694C105.694 170.435 112.867 175.643 116.599 186.012C121.099 198.512 117.099 216.512 110.099 222.012C105.228 225.839 96.8843 221.572 88.8717 222.37M61.0991 219.012C69.0991 220.012 72.8089 229.113 85.3089 223.113C86.4806 222.723 87.6724 222.49 88.8717 222.37M61.0991 219.012V209.512M88.8717 222.37L94.0448 215.49" stroke="black" style="fill: rgb(255, 255, 240);"></path>
    <path class="raiz" d="M101.715 145.769C100.715 120.769 101.599 69.0118 87.5991 17.0118C79.0991 -9.48825 68.5991 4.01175 68.5991 14.5118C68.5991 25.0118 68.599 45.5118 57.099 70.0118C50.599 85.0118 50.099 88.5118 49.599 93.0118C49.099 97.5118 44.099 99.0118 44.099 87.5118C44.099 76.0118 44.099 64.0118 44.099 61.0118C44.099 53.5117 46.099 52.0118 55.599 35.5118C62.099 17.0117 56.099 0.0117538 51.099 1.01175C46.099 2.01175 43.099 11.5117 41.099 18.5117C39.2419 25.0117 26.5991 32.0117 20.0991 48.5117C13.0991 66.5117 12.099 74.5117 12.599 94.0117C13.0871 113.048 18.34 129.224 15.799 153.241C25.299 142.741 39.7779 149.175 41.7779 149.675C43.7779 150.175 52.7779 150.175 54.2779 150.175C55.7779 150.175 58.2779 147.675 62.7779 147.675C67.2779 147.675 66.2779 151.675 79.7779 151.175C90.5779 150.775 99.7855 152.694 102.786 154.694C102.296 152.043 101.927 149.093 101.715 145.769ZM101.715 145.769C101.669 145.035 101.746 146.54 101.715 145.769Z" stroke="black" style="fill: rgb(245, 245, 220);"></path>
</svg>