<svg data-id='31' width="67" height="238" viewBox="0 0 67 238" fill="none" xmlns="http://www.w3.org/2000/svg">
    <path class='raiz' d="M54.0212 82.6948C41.6212 111.895 27.0212 104.695 15.0211 82.1948C15.0211 103.361 17.4211 153.295 27.0211 183.695C39.0211 221.695 36.0211 221.195 47.0211 234.695C53.5211 238.195 59.5211 239.695 55.0211 217.695C50.5211 195.695 57.0211 175.195 57.0211 168.195C57.0211 161.195 60.2875 113.564 54.0212 82.6948ZM54.0212 82.6948C54.1105 82.4845 53.933 82.9054 54.0212 82.6948Z" stroke="black" />
    <path class='coroa' d="M54.0212 82.695C41.6212 111.895 27.0212 104.695 15.0211 82.195C9.52117 70.195 3.52109 37.695 1.02109 18.695C-1.47891 -0.305038 16.5211 3.69496 17.5211 3.69496C18.5211 3.69496 39.5211 2.19497 49.5211 1.19497C59.5211 0.194967 63.5211 3.19497 65.0211 6.69497C66.5125 10.1748 69.2434 46.3608 54.0212 82.695ZM54.0212 82.695C54.1105 82.4847 53.933 82.9055 54.0212 82.695Z" stroke="black" />
</svg>