<svg data-id='32' width="69" height="248" viewBox="0 0 69 248" fill="none" xmlns="http://www.w3.org/2000/svg">
    <path class='raiz' d="M22.3724 180.047C20.8724 169.547 17.3724 107.047 14.8724 87.0467C19.1284 100.047 32.3724 112.047 45.8724 102.547C50.3732 96.8614 53.9914 89.3699 56.8724 81.186C57.2057 89.8527 57.9724 118.947 58.3724 132.547C58.8724 149.547 57.3724 185.547 55.8724 192.047C54.3724 198.547 52.8724 218.547 54.3724 232.047C55.8724 245.547 47.8724 251.047 41.3724 244.547C32.3724 232.547 23.7616 189.771 22.3724 180.047Z" stroke="black" />
    <path class='coroa' d="M66.8723 26.0467C69.039 18.0467 69.1723 2.04671 52.3723 2.04671C31.3723 2.04671 13.8723 1.04671 11.8723 1.04671C9.87231 1.04671 -0.127686 -0.453287 1.37231 13.5467C1.87231 28.5467 7.37231 69.5467 14.8723 87.0467C19.1284 100.047 32.3723 112.047 45.8723 102.547M66.8723 26.0467C66.2057 43.5467 61.0723 83.3467 45.8723 102.547M66.8723 26.0467C66.4031 38.3648 63.7207 61.7317 56.8723 81.186C53.9914 89.3699 50.3732 96.8614 45.8723 102.547" stroke="black" />
</svg>