<svg data-id='33' width="78" height="271" viewBox="0 0 78 271" fill="none" xmlns="http://www.w3.org/2000/svg">
    <path class='raiz' d="M71.6012 189.57C72.8012 149.57 67.7678 99.5212 65.1012 81.8545C55.34 102.211 45.7219 119.544 19.6011 89.5698C20.6011 92.5698 24.1011 138.07 24.1011 147.07C24.1011 156.07 33.6011 203.07 38.6011 222.07C43.6011 241.07 54.1011 261.07 61.1011 267.57C68.1011 274.07 76.6011 266.07 71.6012 254.57C65.6012 212.07 70.1012 239.57 71.6012 189.57Z" stroke="black" />
    <path class='coroa' d="M19.6011 89.5696C18.6011 86.5696 6.1011 64.5696 3.6011 51.5696C1.1011 38.5696 -1.3989 28.0696 4.6011 21.0696C10.6011 14.0696 19.1011 8.56958 26.6011 3.56958C34.1011 -1.43042 42.1011 1.56958 48.1011 6.56958C54.1011 11.5696 72.1011 22.0696 74.1011 25.5696C76.1011 29.0696 82.1011 48.0696 70.1011 71.5696M19.6011 89.5696C50.1011 124.57 58.1011 95.0696 70.1011 71.5696M19.6011 89.5696C45.7219 119.544 55.34 102.211 65.1012 81.8543C66.7377 78.4415 68.3781 74.9437 70.1011 71.5696" stroke="black" />
</svg>