<svg data-id='34' width="82" height="249" viewBox="0 0 82 249" fill="none" xmlns="http://www.w3.org/2000/svg">
    <path class='raiz' d="M71.3096 127.556C70.5096 115.556 67.5693 80.5557 66.0693 64.0557C58.0585 78.9493 48.8196 85.5507 45.8096 87.0557C41.8096 89.0557 26.8096 90.5557 16.3096 74.0557C18.3096 78.5557 14.8096 88.0557 27.8096 150.056C40.8096 212.056 51.8095 226.056 62.3095 240.056C72.8095 254.056 84.8095 247.556 79.8095 231.056C70.8095 215.056 69.8096 184.056 71.3096 170.556C72.8096 157.056 72.3096 142.556 71.3096 127.556Z" stroke="black" />
    <path class='coroa' d="M73.3096 46.5555C81.8096 19.0555 68.8096 13.5555 64.8096 12.0555C60.8096 10.5555 51.8096 7.55556 41.8096 3.05556C31.8096 -1.44444 26.3096 2.55556 23.8096 4.55556C21.3096 6.55556 10.3096 12.5556 5.80959 15.0556C1.30959 17.5556 0.809586 18.5556 1.80959 36.0556C2.80959 53.5556 14.3096 69.5556 16.3096 74.0556C26.8096 90.5556 41.8096 89.0555 45.8096 87.0555M73.3096 46.5555C64.8096 74.0556 49.8096 85.0555 45.8096 87.0555M73.3096 46.5555C71.2059 53.3617 68.704 59.1571 66.0693 64.0555C58.0585 78.9492 48.8196 85.5505 45.8096 87.0555" stroke="black" />
</svg>