<svg data-id="35" width="84" height="237" viewBox="0 0 84 237" fill="none" xmlns="http://www.w3.org/2000/svg">
    <path class="raiz" d="M74.4937 135.012C72.0937 119.812 68.4937 78.9281 66.9937 61.0947C60.2341 76.289 55.4404 82.6963 45.4937 86.0119C35.8937 89.2119 23.4937 76.3452 18.4937 69.5119C24.4937 116.512 33.4937 144.512 37.9937 163.012C42.4937 181.512 53.4938 206.512 66.9937 226.512C80.4936 246.512 83.9938 231.012 82.9938 222.512C81.9938 214.012 74.4937 190.012 74.4937 175.512C74.4937 161.012 77.4937 154.012 74.4937 135.012Z" stroke="black" style="fill: rgb(245, 245, 220);"></path>
    <path class="coroa" d="M71.4937 50.5118C80.9937 27.5118 73.9937 17.5118 69.4937 15.0118C64.9937 12.5118 57.9937 9.01175 49.9937 4.51175C41.9937 0.0117495 34.9937 0.0117495 28.9937 3.51175C22.9937 7.01175 10.4937 14.5117 5.49367 18.5117C0.493668 22.5117 0.993668 25.0117 0.993668 32.0117C0.993668 39.0117 8.99367 54.5117 18.4937 69.5117C23.4937 76.3451 35.8937 89.2118 45.4937 86.0118M71.4937 50.5118C61.9937 73.5118 57.4937 82.0118 45.4937 86.0118M71.4937 50.5118C69.8682 54.4472 68.3891 57.9581 66.9937 61.0946C60.2341 76.2888 55.4404 82.6962 45.4937 86.0118" stroke="black" style="fill: rgb(255, 255, 240);"></path>
</svg>