<svg data-id='36'  width="135" height="242" viewBox="0 0 135 242" fill="none" xmlns="http://www.w3.org/2000/svg">
    <path class='coroa' d="M113.813 11.5637C117.864 9.87944 119.532 5.24885 124.953 6.49996C140.153 13.3 129.62 51.6666 122.453 70C120.28 74.4098 118.343 79.3376 117.062 83.2712C115.8 85.6988 109.489 89.9939 91.23 92.5C77.63 94.1 72.0456 97.1667 70.9534 98.5C69.8789 97.1667 64.23 94.3 50.23 93.5C32.73 92.5 25.5052 90.5 15.3676 79C12.9025 71.8495 -5.81031 34.7451 3.95337 23C13.9534 10 23.9534 1 32.4534 1C40.4113 1 50.7384 11.1888 59.9895 12.0347M113.813 11.5637C113.105 11.8582 112.344 12.0735 111.457 12.1406C107.676 12.7105 97.3534 2.19998 86.9534 2.99998C73.9534 3.99998 70.6406 11.5714 61.864 12.0713C61.2449 12.1066 60.6197 12.0923 59.9895 12.0347M113.813 11.5637L118.338 17.8051M59.9895 12.0347L59.0364 23.696" stroke="black" />
    <path class='raiz' d="M117.062 83.2712C117.142 83.0151 117.224 82.758 117.308 82.5C117.288 82.7274 117.21 82.9865 117.062 83.2712ZM117.062 83.2712C115.8 85.6988 109.488 89.9939 91.23 92.5C77.63 94.1 72.0456 97.1667 70.9534 98.5C69.8789 97.1667 64.23 94.3 50.23 93.5C32.73 92.5 25.5052 90.5 15.3676 79C19.3731 90.6188 24.9296 109.382 28.9533 136C34.9533 164.5 33.9533 166 47.9533 186C61.9533 206 74.4534 229.5 77.4534 232.5C80.4534 235.5 91.4534 247.5 95.4534 236.5C93.4534 222.5 89.9534 221 89.4534 215C88.9534 209 88.9534 197 85.4534 186C82.6534 177.2 70.9534 146 70.9534 146C70.9534 146 67.73 133.315 75.9534 134C81.9534 134.5 89.9534 153.5 91.9534 161C93.9534 168.5 108.453 183 109.453 188C111.953 193 112.953 204 113.453 214C113.953 224 122.953 242.5 129.953 219.5C132.453 198.5 132.453 197 133.453 188C134.453 179 132.953 159.5 125.453 141.5C118.975 125.952 108.766 109.657 117.062 83.2712Z" stroke="black" />
</svg>