<svg data-id="37" width="128" height="237" viewBox="0 0 128 237" fill="none" xmlns="http://www.w3.org/2000/svg">
    <path class="raiz" d="M121.73 219.252C115.33 232.452 108.397 218.752 105.73 210.252C102.73 195.752 95.2299 168.252 90.7299 161.252C86.2299 154.252 79.7299 138.252 75.2299 126.252C70.7299 114.252 65.2299 115.752 63.7299 124.252C62.2299 132.752 64.2299 143.752 66.7299 149.252C69.2299 154.752 82.7299 181.252 83.7299 191.752C84.7299 202.252 86.2299 206.752 90.7299 223.752C94.2299 243.252 76.7299 234.752 74.7299 227.252C72.7299 219.752 56.2299 201.252 49.2299 191.752C42.2299 182.252 24.2299 156.752 20.7299 121.752C17.9299 93.752 13.5632 73.752 11.7299 67.252C13.2299 71.752 15.6003 91.9771 38.2299 93.752C63.7299 95.752 54.2299 99.252 66.7299 99.752C78.7299 99.252 76.7299 95.752 90.2299 95.752C101.03 95.752 110.648 90.4186 114.107 87.752C109.107 114.342 115.331 123.316 117.23 128.252C119.73 134.752 130.73 175.252 125.73 189.252C120.73 203.252 124.23 200.252 121.73 219.252Z" stroke="black" style="fill: rgb(245, 245, 220);"></path>
    <path class="coroa" d="M66.8482 14.7361C74.2619 13.6995 77.2985 8.72059 90.23 2.7522C103.23 -3.2478 110.73 7.2522 119.73 17.7522C128.73 28.2522 129.23 37.2522 122.73 56.7522C118.4 69.1406 115.69 79.3301 114.107 87.7522C110.648 90.4189 101.03 95.7522 90.23 95.7522C76.73 95.7522 78.73 99.2522 66.73 99.7522C54.23 99.2522 63.73 95.7522 38.23 93.7522C15.6004 91.9773 13.23 71.7522 11.73 67.2522C10.23 62.7522 0.72998 50.7522 0.72998 33.2522C2.22998 15.7522 21.23 4.7522 34.73 4.7522C48.23 4.7522 58.73 14.2522 66.73 14.7522C66.7695 14.7469 66.8089 14.7415 66.8482 14.7361ZM66.8482 14.7361V24.7522" stroke="black" style="fill: rgb(255, 255, 240);"></path>
</svg>