<svg data-id="38" width="128" height="237" viewBox="0 0 128 237" fill="none" xmlns="http://www.w3.org/2000/svg">
    <path class="raiz" d="M122.117 219.252C115.717 232.452 108.784 218.752 106.117 210.252C103.117 195.752 95.617 168.252 91.117 161.252C86.617 154.252 80.117 138.252 75.617 126.252C71.117 114.252 65.617 115.752 64.117 124.252C62.617 132.752 64.617 143.752 67.117 149.252C69.617 154.752 83.117 181.252 84.117 191.752C85.117 202.252 86.617 206.752 91.117 223.752C94.617 243.252 77.117 234.752 75.117 227.252C73.117 219.752 56.617 201.252 49.617 191.752C42.617 182.252 24.617 156.752 21.117 121.752C18.317 93.752 13.9503 73.752 12.117 67.252C13.617 71.752 15.9873 91.9771 38.617 93.752C64.117 95.752 54.617 99.252 67.117 99.752C79.117 99.252 77.117 95.752 90.617 95.752C101.417 95.752 111.035 90.4186 114.494 87.752C109.494 114.342 115.719 123.316 117.617 128.252C120.117 134.752 131.117 175.252 126.117 189.252C121.117 203.252 124.617 200.252 122.117 219.252Z" stroke="black" style="fill: rgb(245, 245, 220);"></path>
    <path class="coroa" d="M67.2351 14.7361C74.6488 13.6995 77.6854 8.72059 90.6169 2.7522C103.617 -3.2478 111.117 7.2522 120.117 17.7522C129.117 28.2522 129.617 37.2522 123.117 56.7522C118.787 69.1406 116.077 79.3301 114.494 87.7522C111.035 90.4189 101.417 95.7522 90.6169 95.7522C77.1169 95.7522 79.1169 99.2522 67.1169 99.7522C54.6169 99.2522 64.1169 95.7522 38.6169 93.7522C15.9873 91.9773 13.6169 71.7522 12.1169 67.2522C10.6169 62.7522 1.11694 50.7522 1.11694 33.2522C2.61694 15.7522 21.6169 4.7522 35.1169 4.7522C48.6169 4.7522 59.1169 14.2522 67.1169 14.7522C67.1565 14.7469 67.1958 14.7415 67.2351 14.7361ZM67.2351 14.7361V24.7522" stroke="black" style="fill: rgb(255, 255, 240);"></path>
</svg>