<svg data-id='41' width="68" height="238" viewBox="0 0 68 238" fill="none" xmlns="http://www.w3.org/2000/svg">
    <path class='raiz' d="M13.4827 82.6948C25.8827 111.895 40.4827 104.695 52.4828 82.1948C52.4828 103.361 50.0828 153.295 40.4828 183.695C28.4828 221.695 31.4828 221.195 20.4828 234.695C13.9828 238.195 7.98281 239.695 12.4828 217.695C16.9828 195.695 10.4828 175.195 10.4828 168.195C10.4828 161.195 7.21639 113.564 13.4827 82.6948ZM13.4827 82.6948C13.3934 82.4845 13.5709 82.9054 13.4827 82.6948Z" stroke="black" />
    <path class='coroa' d="M13.4827 82.695C25.8827 111.895 40.4827 104.695 52.4828 82.195C57.9827 70.195 63.9828 37.695 66.4828 18.695C68.9828 -0.305038 50.9828 3.69496 49.9828 3.69496C48.9828 3.69496 27.9828 2.19497 17.9828 1.19497C7.98281 0.194967 3.98277 3.19497 2.48277 6.69497C0.991414 10.1748 -1.73953 46.3608 13.4827 82.695ZM13.4827 82.695C13.3934 82.4847 13.5709 82.9055 13.4827 82.695Z" stroke="black" />
</svg>