<svg data-id="42" width="68" height="248" viewBox="0 0 68 248" fill="none" xmlns="http://www.w3.org/2000/svg">
    <path class="raiz" d="M46.1315 180.047C47.6315 169.547 51.1315 107.047 53.6315 87.0467C49.3755 100.047 36.1315 112.047 22.6315 102.547C18.1307 96.8614 14.5125 89.3699 11.6315 81.186C11.2982 89.8527 10.5315 118.947 10.1315 132.547C9.63152 149.547 11.1315 185.547 12.6315 192.047C14.1315 198.547 15.6315 218.547 14.1315 232.047C12.6315 245.547 20.6315 251.047 27.1315 244.547C36.1315 232.547 44.7423 189.771 46.1315 180.047Z" stroke="black" style="fill: rgb(245, 245, 220);"></path>
    <path class="coroa" d="M1.63157 26.0467C-0.535093 18.0467 -0.668426 2.04671 16.1316 2.04671C37.1316 2.04671 54.6316 1.04671 56.6316 1.04671C58.6316 1.04671 68.6316 -0.453287 67.1316 13.5467C66.6316 28.5467 61.1316 69.5467 53.6316 87.0467C49.3755 100.047 36.1316 112.047 22.6316 102.547M1.63157 26.0467C2.29825 43.5467 7.43159 83.3467 22.6316 102.547M1.63157 26.0467C2.10084 38.3648 4.78318 61.7317 11.6316 81.186C14.5125 89.3699 18.1307 96.8614 22.6316 102.547" stroke="black" style="fill: rgb(255, 255, 240);"></path>
</svg>