<svg data-id='43' width="79" height="271" viewBox="0 0 79 271" fill="none" xmlns="http://www.w3.org/2000/svg">
    <path class='raiz' d="M6.90274 189.57C5.70274 149.57 10.7361 99.5212 13.4027 81.8545C23.1639 102.211 32.782 119.544 58.9028 89.5698C57.9028 92.5698 54.4028 138.07 54.4028 147.07C54.4028 156.07 44.9028 203.07 39.9028 222.07C34.9028 241.07 24.4028 261.07 17.4028 267.57C10.4028 274.07 1.90281 266.07 6.90274 254.57C12.9027 212.07 8.40274 239.57 6.90274 189.57Z" stroke="black" />
    <path class='coroa' d="M58.9028 89.5696C59.9028 86.5696 72.4028 64.5696 74.9028 51.5696C77.4028 38.5696 79.9028 28.0696 73.9028 21.0696C67.9028 14.0696 59.4028 8.56958 51.9028 3.56958C44.4028 -1.43042 36.4028 1.56958 30.4028 6.56958C24.4028 11.5696 6.40281 22.0696 4.40281 25.5696C2.40281 29.0696 -3.59719 48.0696 8.40281 71.5696M58.9028 89.5696C28.4028 124.57 20.4028 95.0696 8.40281 71.5696M58.9028 89.5696C32.782 119.544 23.1639 102.211 13.4027 81.8543C11.7663 78.4415 10.1258 74.9437 8.40281 71.5696" stroke="black" />
</svg>