<svg data-id="44" width="81" height="249" viewBox="0 0 81 249" fill="none" xmlns="http://www.w3.org/2000/svg">
    <path class="raiz" d="M10.1943 127.556C10.9943 115.556 13.9346 80.5557 15.4346 64.0557C23.4454 78.9493 32.6843 85.5507 35.6943 87.0557C39.6943 89.0557 54.6943 90.5557 65.1943 74.0557C63.1943 78.5557 66.6943 88.0557 53.6943 150.056C40.6943 212.056 29.6944 226.056 19.1944 240.056C8.69441 254.056 -3.30559 247.556 1.69441 231.056C10.6944 215.056 11.6943 184.056 10.1943 170.556C8.69432 157.056 9.19432 142.556 10.1943 127.556Z" stroke="black" style="fill: rgb(245, 245, 220);"></path>
    <path class="coroa" d="M8.19432 46.5555C-0.305681 19.0555 12.6943 13.5555 16.6943 12.0555C20.6943 10.5555 29.6943 7.55556 39.6943 3.05556C49.6943 -1.44444 55.1943 2.55556 57.6943 4.55556C60.1943 6.55556 71.1943 12.5556 75.6943 15.0556C80.1943 17.5556 80.6943 18.5556 79.6943 36.0556C78.6943 53.5556 67.1943 69.5556 65.1943 74.0556C54.6943 90.5556 39.6943 89.0555 35.6943 87.0555M8.19432 46.5555C16.6943 74.0556 31.6943 85.0555 35.6943 87.0555M8.19432 46.5555C10.298 53.3617 12.7999 59.1571 15.4346 64.0555C23.4454 78.9492 32.6843 85.5505 35.6943 87.0555" stroke="black" style="fill: rgb(255, 255, 240);"></path>
</svg>