<svg data-id='45' width="85" height="237" viewBox="0 0 85 237" fill="none" xmlns="http://www.w3.org/2000/svg">
    <path class='raiz' d="M10.0102 135.012C12.4102 119.812 16.0102 78.9281 17.5102 61.0947C24.2698 76.289 29.0635 82.6963 39.0103 86.0119C48.6103 89.2119 61.0103 76.3452 66.0103 69.5119C60.0103 116.512 51.0103 144.512 46.5103 163.012C42.0103 181.512 31.0101 206.512 17.5102 226.512C4.0103 246.512 0.510137 231.012 1.51014 222.512C2.51014 214.012 10.0102 190.012 10.0102 175.512C10.0102 161.012 7.01022 154.012 10.0102 135.012Z" stroke="black" />
    <path class='coroa' d="M13.0104 50.5118C3.51036 27.5118 10.5104 17.5118 15.0104 15.0118C19.5104 12.5118 26.5104 9.01175 34.5104 4.51175C42.5104 0.0117495 49.5104 0.0117495 55.5104 3.51175C61.5104 7.01175 74.0104 14.5117 79.0104 18.5117C84.0104 22.5117 83.5104 25.0117 83.5104 32.0117C83.5104 39.0117 75.5104 54.5117 66.0104 69.5117C61.0104 76.3451 48.6104 89.2118 39.0104 86.0118M13.0104 50.5118C22.5104 73.5118 27.0104 82.0118 39.0104 86.0118M13.0104 50.5118C14.6359 54.4472 16.115 57.9581 17.5103 61.0946C24.2699 76.2888 29.0636 82.6962 39.0104 86.0118" stroke="black" />
</svg>