<svg data-id="46" width="134" height="242" viewBox="0 0 134 242" fill="none" xmlns="http://www.w3.org/2000/svg">
    <path class="coroa" d="M20.6908 11.5637C16.64 9.87944 14.972 5.24885 9.55054 6.49996C-5.64946 13.3 4.88387 51.6666 12.0505 70C14.2235 74.4098 16.1613 79.3376 17.4424 83.2712C18.7044 85.6988 25.0154 89.9939 43.2739 92.5C56.8739 94.1 62.4583 97.1667 63.5505 98.5C64.625 97.1667 70.2739 94.3 84.2739 93.5C101.774 92.5 108.999 90.5 119.136 79C121.601 71.8495 140.314 34.7451 130.551 23C120.551 10 110.551 1 102.051 1C94.0926 1 83.7655 11.1888 74.5144 12.0347M20.6908 11.5637C21.3991 11.8582 22.1601 12.0735 23.0469 12.1406C26.8279 12.7105 37.1505 2.19998 47.5505 2.99998C60.5505 3.99998 63.8633 11.5714 72.6399 12.0713C73.259 12.1066 73.8842 12.0923 74.5144 12.0347M20.6908 11.5637L16.166 17.8051M74.5144 12.0347L75.4675 23.696" stroke="black" style="fill: rgb(255, 255, 240);"></path>
    <path class="raiz" d="M17.4424 83.2712C17.3619 83.0151 17.2796 82.758 17.1956 82.5C17.2158 82.7274 17.2944 82.9865 17.4424 83.2712ZM17.4424 83.2712C18.7044 85.6988 25.0154 89.9939 43.2739 92.5C56.8739 94.1 62.4583 97.1667 63.5506 98.5C64.625 97.1667 70.2739 94.3 84.2739 93.5C101.774 92.5 108.999 90.5 119.136 79C115.131 90.6188 109.574 109.382 105.551 136C99.5506 164.5 100.551 166 86.5506 186C72.5506 206 60.0506 229.5 57.0506 232.5C54.0506 235.5 43.0506 247.5 39.0506 236.5C41.0506 222.5 44.5506 221 45.0506 215C45.5506 209 45.5506 197 49.0506 186C51.8506 177.2 63.5506 146 63.5506 146C63.5506 146 66.7739 133.315 58.5506 134C52.5506 134.5 44.5506 153.5 42.5506 161C40.5506 168.5 26.0506 183 25.0506 188C22.5506 193 21.5506 204 21.0506 214C20.5506 224 11.5506 242.5 4.55056 219.5C2.05056 198.5 2.05056 197 1.05056 188C0.0505568 179 1.55056 159.5 9.05056 141.5C15.529 125.952 25.7382 109.657 17.4424 83.2712Z" stroke="black" style="fill: rgb(245, 245, 220);"></path>
</svg>