<svg data-id="47" width="129" height="237" viewBox="0 0 129 237" fill="none" xmlns="http://www.w3.org/2000/svg">
    <path class="raiz" d="M6.77384 219.252C13.1738 232.452 20.1072 218.752 22.7738 210.252C25.7737 195.752 33.274 168.252 37.774 161.252C42.274 154.252 48.774 138.252 53.274 126.252C57.774 114.252 63.274 115.752 64.774 124.252C66.274 132.752 64.274 143.752 61.774 149.252C59.274 154.752 45.774 181.252 44.774 191.752C43.774 202.252 42.274 206.752 37.774 223.752C34.274 243.252 51.774 234.752 53.774 227.252C55.774 219.752 72.274 201.252 79.274 191.752C86.274 182.252 104.274 156.752 107.774 121.752C110.574 93.752 114.941 73.752 116.774 67.252C115.274 71.752 112.904 91.9771 90.274 93.752C64.774 95.752 74.274 99.252 61.774 99.752C49.774 99.252 51.774 95.752 38.274 95.752C27.474 95.752 17.8561 90.4186 14.3972 87.752C19.3969 114.342 13.1725 123.316 11.2738 128.252C8.77384 134.752 -2.22616 175.252 2.77384 189.252C7.77384 203.252 4.27384 200.252 6.77384 219.252Z" stroke="black" style="fill: rgb(245, 245, 220);"></path>
    <path class="coroa" d="M61.6558 14.7361C54.242 13.6995 51.2054 8.72059 38.2739 2.7522C25.2739 -3.2478 17.7738 7.2522 8.77383 17.7522C-0.226172 28.2522 -0.726172 37.2522 5.77383 56.7522C10.1037 69.1406 12.8134 79.3301 14.3971 87.7522C17.856 90.4189 27.4739 95.7522 38.2739 95.7522C51.7739 95.7522 49.7739 99.2522 61.7739 99.7522C74.2739 99.2522 64.7739 95.7522 90.2739 93.7522C112.904 91.9773 115.274 71.7522 116.774 67.2522C118.274 62.7522 127.774 50.7522 127.774 33.2522C126.274 15.7522 107.274 4.7522 93.7739 4.7522C80.2739 4.7522 69.7739 14.2522 61.7739 14.7522C61.7344 14.7469 61.695 14.7415 61.6558 14.7361ZM61.6558 14.7361V24.7522" stroke="black" style="fill: rgb(255, 255, 240);"></path>
</svg>