<svg data-id="48" width="128" height="237" viewBox="0 0 128 237" fill="none" xmlns="http://www.w3.org/2000/svg">
    <path class="raiz" d="M6.38688 219.252C12.7869 232.452 19.7202 218.752 22.3869 210.252C25.3867 195.752 32.8871 168.252 37.3871 161.252C41.8871 154.252 48.3871 138.252 52.8871 126.252C57.3871 114.252 62.8871 115.752 64.3871 124.252C65.8871 132.752 63.8871 143.752 61.3871 149.252C58.8871 154.752 45.3871 181.252 44.3871 191.752C43.3871 202.252 41.8871 206.752 37.3871 223.752C33.8871 243.252 51.3871 234.752 53.3871 227.252C55.3871 219.752 71.8871 201.252 78.8871 191.752C85.8871 182.252 103.887 156.752 107.387 121.752C110.187 93.752 114.554 73.752 116.387 67.252C114.887 71.752 112.517 91.9771 89.8871 93.752C64.3871 95.752 73.8871 99.252 61.3871 99.752C49.3871 99.252 51.3871 95.752 37.8871 95.752C27.0871 95.752 17.4691 90.4186 14.0102 87.752C19.0099 114.342 12.7855 123.316 10.8869 128.252C8.38688 134.752 -2.61312 175.252 2.38688 189.252C7.38688 203.252 3.88688 200.252 6.38688 219.252Z" stroke="black" style="fill: rgb(245, 245, 220);"></path>
    <path class="coroa" d="M61.2688 14.7361C53.8551 13.6995 50.8185 8.72059 37.887 2.7522C24.887 -3.2478 17.3869 7.2522 8.38686 17.7522C-0.613135 28.2522 -1.11314 37.2522 5.38686 56.7522C9.71677 69.1406 12.4265 79.3301 14.0101 87.7522C17.4691 90.4189 27.087 95.7522 37.887 95.7522C51.387 95.7522 49.387 99.2522 61.387 99.7522C73.887 99.2522 64.387 95.7522 89.887 93.7522C112.517 91.9773 114.887 71.7522 116.387 67.2522C117.887 62.7522 127.387 50.7522 127.387 33.2522C125.887 15.7522 106.887 4.7522 93.387 4.7522C79.887 4.7522 69.387 14.2522 61.387 14.7522C61.3474 14.7469 61.3081 14.7415 61.2688 14.7361ZM61.2688 14.7361V24.7522" stroke="black" style="fill: rgb(255, 255, 240);"></path>
</svg>