<svg data-id="51" width="89" height="246" viewBox="0 0 89 246" fill="none" xmlns="http://www.w3.org/2000/svg">
    <path class='coroa' d="M0.971647 219.379C-1.23764 200.968 9.25648 183.478 14.7797 177.034C36.8726 148.498 61.7271 157.703 77.3762 177.034C86.5816 196.366 89.3432 234.108 87.5021 237.79C85.6611 241.472 76.4557 245.154 73.6941 245.154C70.9325 245.154 53.4423 246.075 42.3958 245.154C31.3494 244.234 36.8726 242.392 27.6673 240.551C18.4619 238.71 3.73326 242.392 0.971647 219.379Z" stroke="black" stroke-width="0.7" stroke-linecap="round" stroke-linejoin="round"/>
    <path class='raiz' d="M18.4622 131.928C17.7257 148.129 15.7006 168.749 14.78 177.034C42.3961 143.895 67.2506 164.147 77.3765 177.034C80.1381 167.829 79.2176 136.531 77.3765 128.246C75.5354 119.961 74.6149 116.279 70.0122 93.2655C65.4095 70.2521 70.0122 28.8279 70.0122 11.3377C65.4095 -7.07299 58.0452 3.05291 53.4426 11.3377C48.8399 19.6226 38.714 60.1262 34.1113 68.411C29.5086 76.6958 19.3827 111.676 18.4622 131.928Z" stroke="black" stroke-width="0.7" stroke-linecap="round" stroke-linejoin="round"/>
</svg>