<svg data-id="52" width="81" height="225" viewBox="0 0 81 225" fill="none" xmlns="http://www.w3.org/2000/svg">
    <path class='coroa' d="M1.22437 209.207C1.22437 197.424 8.58866 172.999 12.2708 162.26C45.4101 124.518 63.8209 159.498 72.1057 165.942C75.7878 174.227 77.6289 187.114 79.47 202.763C80.9428 215.282 73.9468 219.026 70.2646 219.333C67.1962 218.719 60.691 217.86 59.2182 219.333C57.3771 221.174 54.6155 223.015 53.695 223.015C52.7744 223.015 38.0458 224.856 32.5226 223.015C26.9994 221.174 24.2378 219.333 21.4762 219.333C18.7146 219.333 1.22437 223.935 1.22437 209.207Z" stroke="black" stroke-width="0.7" stroke-linecap="round" stroke-linejoin="round"/>
    <path class='raiz' d="M21.4761 91.378C17.0575 109.052 13.1913 145.69 12.2708 162.259C16.5666 156.736 28.8404 145.506 39.8869 144.769C52.7744 144.769 61.0592 153.974 72.1056 165.941C73.0262 143.849 65.6619 114.391 64.7413 104.265C63.9045 95.0601 59.2181 50.8743 54.6154 29.702C50.0128 8.52965 41.7279 -1.59625 35.2842 1.16536C28.8404 3.92697 30.6815 16.8145 29.7609 33.3841C28.8404 49.9538 26.9993 69.2851 21.4761 91.378Z" stroke="black" stroke-width="0.7" stroke-linecap="round" stroke-linejoin="round"/>
</svg>