<svg data-id="53" width="98" height="278" viewBox="0 0 98 278" fill="none" xmlns="http://www.w3.org/2000/svg">
    <path class="raiz" d="M29.2278 90.4703C21.8635 118.455 18.7951 164.113 18.1814 183.444C42.1153 170.557 56.8439 173.319 82.619 183.444C83.5395 159.511 77.0957 87.7087 76.1752 82.1854C75.2547 76.6622 68.8109 42.6024 67.8904 35.2381C66.9698 27.8738 65.1288 1.17822 54.0823 1.17822C43.0359 1.17822 42.1153 15.9068 41.1948 26.0327C40.2743 36.1586 38.4332 55.4899 29.2278 90.4703Z" stroke="black" stroke-width="0.7" stroke-linecap="round" stroke-linejoin="round" style="fill: rgb(245, 245, 220);"></path>
    <path class="coroa" d="M82.6188 183.444C50.9524 167.979 27.0798 177.001 19.1018 183.444C14.4991 186.409 7.13483 211.981 5.29376 214.743C3.45269 217.504 -2.99107 225.789 3.45269 233.153C9.89644 240.518 20.0223 251.564 22.784 256.167C25.5456 260.769 31.0688 278.26 43.9563 277.339C56.8438 276.419 66.0492 263.531 71.5724 256.167C77.0956 248.802 89.0626 244.2 94.5858 233.153C100.109 222.107 97.3474 201.855 82.6188 183.444Z" stroke="black" stroke-width="0.7" stroke-linecap="round" stroke-linejoin="round" style="fill: rgb(255, 255, 240);"></path>
    <path d="M30.5115 269.055C30.3029 263.139 30.0943 257.221 30.1608 253.679C30.2273 250.137 30.569 248.97 30.9589 247.787C31.3487 246.604 31.7865 245.405 31.9308 244.345C32.075 243.285 31.9254 242.362 31.7751 241.438" stroke="#4D4D4D" stroke-width="0.7" stroke-linecap="round" stroke-linejoin="round"></path>
    <path d="M71.3791 255.652C71.161 249.836 70.9429 244.02 70.6208 240.552C70.2987 237.084 69.8724 235.965 69.3969 234.834C68.9214 233.703 68.3966 232.56 68.1758 231.532C67.9549 230.503 68.0381 229.587 68.1218 228.671" stroke="#4D4D4D" stroke-width="0.7" stroke-linecap="round" stroke-linejoin="round"></path>
</svg>