<svg data-id="54" width="121" height="199" viewBox="0 0 121 199" fill="none" xmlns="http://www.w3.org/2000/svg">
    <path class="raiz" d="M36.6127 9.83849C29.9849 12.7842 25.8731 25.1808 24.6458 31.0108C25.5663 33.7724 25.5663 37.4546 27.4074 52.1832C30.169 82.5609 48.5797 90.8457 50.4208 89.9252C54.1029 89.0046 56.8645 80.7198 61.4672 73.3555C41.2154 58.6269 42.1359 19.0439 43.0565 15.3617C43.977 11.6796 41.2154 7.07688 36.6127 9.83849Z" stroke="black" stroke-width="0.7" stroke-linecap="round" stroke-linejoin="round" style="fill: rgb(245, 245, 220);"></path>
    <path class="coroa" d="M94.6065 186.581C101.971 183.82 104.732 186.581 115.779 174.614C126.825 156.204 117.62 126.746 102.891 118.462C88.1628 110.177 69.7521 115.7 50.4208 126.746C34.9558 135.584 28.3279 130.429 21.3389 125.392C21.3389 146.078 10.8377 166.33 15.4404 182.899C22.8047 196.707 34.7716 193.946 43.977 190.264C54.1029 187.502 55.944 197.628 60.5467 197.628C66.0699 196.707 69.752 198.548 76.1958 197.628C82.6395 196.707 87.2422 189.343 94.6065 186.581Z" stroke="black" stroke-width="0.7" stroke-linecap="round" stroke-linejoin="round" style="fill: rgb(255, 255, 240);"></path>
    <path class="raiz" d="M6.23506 79.7992C17.2815 101.892 19.1226 120.303 20.9636 124.906C30.169 133.19 38.4538 132.27 44.8976 129.508C48.5797 127.667 56.8646 122.144 68.8315 118.462C87.2423 111.097 95.5271 115.7 104.732 119.382C101.05 94.5278 107.494 71.5144 108.415 64.1501C109.335 56.7858 115.779 47.5804 110.256 21.8054C104.732 -3.9696 90.9244 -2.12853 90.9244 6.1563C90.9244 25.4876 78.9574 54.9447 68.8315 64.1501C58.7056 73.3555 54.1029 90.8457 50.4208 89.9251C46.7387 89.0046 37.5333 86.243 30.169 66.9117C24.6458 49.4215 28.3279 23.6465 16.361 23.6465C7.1556 22.726 -7.57299 52.1831 6.23506 79.7992Z" stroke="black" stroke-width="0.7" stroke-linecap="round" stroke-linejoin="round" style="fill: rgb(245, 245, 220);"></path>
    <path d="M50.7858 189.795C50.5764 183.979 50.3671 178.162 50.4338 174.68C50.5005 171.198 50.8435 170.051 51.2347 168.888C51.626 167.725 52.0654 166.547 52.2102 165.505C52.3549 164.462 52.2047 163.556 52.054 162.647" stroke="#4D4D4D" stroke-width="0.7" stroke-linecap="round" stroke-linejoin="round"></path>
    <path d="M91.6516 187.59C91.4335 181.774 91.2154 175.958 90.8933 172.49C90.5711 169.022 90.1449 167.903 89.6693 166.772C89.1938 165.641 88.6691 164.498 88.4482 163.47C88.2274 162.441 88.3106 161.525 88.3943 160.609" stroke="#4D4D4D" stroke-width="0.7" stroke-linecap="round" stroke-linejoin="round"></path>
</svg>