<svg data-id="55" width="126" height="238" viewBox="0 0 126 238" fill="none" xmlns="http://www.w3.org/2000/svg">
    <path class="raiz" d="M44.561 13.2262C34.251 18.3812 29.5256 55.264 28.9119 73.9816C31.6735 81.3459 51.9253 108.962 59.2896 109.883C62.0512 108.962 66.6539 104.359 78.6208 83.187C62.0512 61.0941 52.9988 36.0839 51.0047 26.1137C49.1637 16.9083 47.4517 11.7808 44.561 13.2262Z" stroke="black" stroke-width="0.7" stroke-linecap="round" stroke-linejoin="round" style="fill: rgb(245, 245, 220);"></path>
    <path class="coroa" d="M11.4221 177.082C17.3135 168.245 20.3207 157.751 20.6275 154.069C26.1507 160.512 36.2766 161.433 50.0847 155.91C58.3695 153.148 62.6364 153.49 71.257 154.989C92.4294 158.671 103.476 156.83 107.158 152.228C130.171 167.877 127.103 200.709 121.887 212.062C117.284 237.837 98.8731 238.758 95.191 236.917C93.3499 235.996 87.8267 229.553 78.6213 229.553C69.4159 229.553 69.4159 227.712 64.8133 225.87C47.3231 242.44 34.4356 231.394 32.5945 231.394C30.7534 231.394 28.9123 231.394 27.0712 230.473C3.13726 220.347 4.0578 188.128 11.4221 177.082Z" stroke="#030303" stroke-width="0.7" stroke-linecap="round" stroke-linejoin="round" style="fill: rgb(255, 255, 240);"></path>
    <path d="M65.1774 224.481C64.968 218.665 64.7587 212.849 64.8254 209.366C64.8921 205.884 65.2351 204.737 65.6263 203.574C66.0176 202.411 66.457 201.233 66.6018 200.191C66.7465 199.148 66.5963 198.242 66.4456 197.333" stroke="#4D4D4D" stroke-width="0.7" stroke-linecap="round" stroke-linejoin="round"></path>
    <path class="raiz" d="M49.1637 155.91C33.6987 163.274 20.6271 157.751 20.6271 152.227C20.6271 131.055 16.0244 123.691 15.1038 121.85C14.1833 120.009 -1.46582 92.3925 1.29579 68.4585C4.0574 44.5246 8.66008 39.0014 10.5012 32.5576C12.3422 26.1139 20.6271 16.9085 21.5476 27.0344C21.5476 52.8094 24.3092 62.0148 26.1503 68.4585C27.9914 74.9023 54.6869 113.565 60.2101 109.883C65.7334 106.201 76.7798 87.7898 82.303 75.8228C93.3494 60.1737 91.5084 27.9549 90.5878 17.829C89.6673 7.70312 90.5878 -2.42279 96.1111 2.1799C132.012 44.5246 115.442 108.962 111.76 119.088C108.078 129.214 109.919 143.943 107.158 152.227C105.316 157.75 85.0646 157.751 77.7003 155.91C70.336 154.068 59.2896 152.227 49.1637 155.91Z" stroke="#030303" stroke-width="0.7" stroke-linecap="round" stroke-linejoin="round" style="fill: rgb(245, 245, 220);"></path>
</svg>