<svg data-id="61" width="89" height="246" viewBox="0 0 89 246" fill="none" xmlns="http://www.w3.org/2000/svg">
    <path class='coroa' d="M88.1094 219.379C90.3187 200.968 79.8246 183.478 74.3014 177.034C52.2084 148.498 27.3539 157.703 11.7048 177.034C2.49945 196.366 -0.262154 234.108 1.57892 237.79C3.41999 241.472 12.6254 245.154 15.387 245.154C18.1486 245.154 35.6388 246.075 46.6852 245.154C57.7317 244.234 52.2084 242.392 61.4138 240.551C70.6192 238.71 85.3478 242.392 88.1094 219.379Z" stroke="black" stroke-width="0.7" stroke-linecap="round" stroke-linejoin="round"/>
    <path class='raiz'  d="M70.6189 131.928C71.3553 148.129 73.3805 168.749 74.301 177.034C46.6849 143.895 21.8304 164.147 11.7045 177.034C8.94292 167.829 9.86346 136.531 11.7045 128.246C13.5456 119.961 14.4661 116.279 19.0688 93.2655C23.6715 70.2521 19.0688 28.8279 19.0688 11.3377C23.6715 -7.07299 31.0358 3.05291 35.6385 11.3377C40.2412 19.6226 50.3671 60.1262 54.9698 68.411C59.5724 76.6958 69.6983 111.676 70.6189 131.928Z" stroke="black" stroke-width="0.7" stroke-linecap="round" stroke-linejoin="round"/>
</svg>