<svg data-id="62" width="80" height="225" viewBox="0 0 80 225" fill="none" xmlns="http://www.w3.org/2000/svg">
    <path class='coroa' d="M78.8567 209.207C78.8567 197.424 71.4924 172.999 67.8102 162.26C34.6709 124.518 16.2602 159.498 7.97536 165.942C4.29322 174.227 2.45215 187.114 0.611076 202.763C-0.861786 215.282 6.13429 219.026 9.81644 219.333C12.8849 218.719 19.39 217.86 20.8629 219.333C22.704 221.174 25.4656 223.015 26.3861 223.015C27.3066 223.015 42.0352 224.856 47.5584 223.015C53.0817 221.174 55.8433 219.333 58.6049 219.333C61.3665 219.333 78.8567 223.935 78.8567 209.207Z" stroke="black" stroke-width="0.7" stroke-linecap="round" stroke-linejoin="round"/>
    <path class='raiz'  d="M58.6049 91.378C63.0235 109.052 66.8898 145.69 67.8103 162.259C63.5145 156.736 51.2406 145.506 40.1942 144.769C27.3067 144.769 19.0219 153.974 7.97542 165.941C7.05489 143.849 14.4192 114.391 15.3397 104.265C16.1766 95.0601 20.8629 50.8743 25.4656 29.702C30.0683 8.52965 38.3531 -1.59625 44.7969 1.16536C51.2406 3.92697 49.3996 16.8145 50.3201 33.3841C51.2406 49.9538 53.0817 69.2851 58.6049 91.378Z" stroke="black" stroke-width="0.7" stroke-linecap="round" stroke-linejoin="round"/>
</svg>