<svg data-id="63" width="98" height="278" viewBox="0 0 98 278" fill="none" xmlns="http://www.w3.org/2000/svg">
    <path class="raiz" d="M68.8532 90.4703C76.2175 118.455 79.286 164.113 79.8997 183.444C55.9657 170.557 41.2371 173.319 15.4621 183.444C14.5416 159.511 20.9853 87.7087 21.9058 82.1854C22.8264 76.6622 29.2701 42.6024 30.1907 35.2381C31.1112 27.8738 32.9523 1.17822 43.9987 1.17822C55.0452 1.17822 55.9657 15.9068 56.8862 26.0327C57.8068 36.1586 59.6479 55.4899 68.8532 90.4703Z" stroke="black" stroke-width="0.7" stroke-linecap="round" stroke-linejoin="round" style="fill: rgb(245, 245, 220);"></path>
    <path class="coroa" d="M15.4622 183.444C47.1287 167.979 71.0013 177.001 78.9792 183.444C83.582 186.409 90.9462 211.981 92.7873 214.743C94.6284 217.504 101.072 225.789 94.6284 233.153C88.1846 240.518 78.0587 251.564 75.2971 256.167C72.5355 260.769 67.0123 278.26 54.1248 277.339C41.2372 276.419 32.0319 263.531 26.5087 256.167C20.9854 248.802 9.01846 244.2 3.49524 233.153C-2.02798 222.107 0.733627 201.855 15.4622 183.444Z" stroke="black" stroke-width="0.7" stroke-linecap="round" stroke-linejoin="round" style="fill: rgb(255, 255, 240);"></path>
    <path d="M26.7019 255.652C26.92 249.836 27.1381 244.02 27.4602 240.552C27.7824 237.084 28.2086 235.965 28.6842 234.834C29.1597 233.703 29.6844 232.56 29.9053 231.532C30.1262 230.503 30.043 229.587 29.9592 228.671" stroke="#4D4D4D" stroke-width="0.7" stroke-linecap="round" stroke-linejoin="round"></path>
    <path d="M67.5693 269.055C67.7779 263.139 67.9865 257.221 67.92 253.679C67.8536 250.137 67.5118 248.97 67.1219 247.787C66.7321 246.604 66.2943 245.405 66.15 244.345C66.0058 243.285 66.1554 242.362 66.3057 241.438" stroke="#4D4D4D" stroke-width="0.7" stroke-linecap="round" stroke-linejoin="round"></path>
</svg>