<svg data-id="64" width="121" height="199" viewBox="0 0 121 199" fill="none" xmlns="http://www.w3.org/2000/svg">
    <path class="raiz" d="M84.4678 9.83849C91.0957 12.7842 95.2074 25.1808 96.4348 31.0108C95.5143 33.7724 95.5143 37.4546 93.6732 52.1832C90.9116 82.5609 72.5009 90.8457 70.6598 89.9252C66.9776 89.0046 64.216 80.7198 59.6133 73.3555C79.8652 58.6269 78.9446 19.0439 78.0241 15.3617C77.1035 11.6796 79.8652 7.07688 84.4678 9.83849Z" stroke="black" stroke-width="0.7" stroke-linecap="round" stroke-linejoin="round" style="fill: rgb(245, 245, 220);"></path>
    <path class="coroa" d="M26.4743 186.581C19.11 183.82 16.3484 186.581 5.30196 174.614C-5.74445 156.204 3.46086 126.746 18.1894 118.462C32.918 110.177 51.3288 115.7 70.66 126.746C86.125 135.584 92.7529 130.429 99.7419 125.392C99.7419 146.078 110.243 166.33 105.64 182.899C98.2762 196.707 86.3092 193.946 77.1038 190.264C66.9779 187.502 65.1368 197.628 60.5342 197.628C55.0109 196.707 51.3288 198.548 44.885 197.628C38.4413 196.707 33.8386 189.343 26.4743 186.581Z" stroke="black" stroke-width="0.7" stroke-linecap="round" stroke-linejoin="round" style="fill: rgb(255, 255, 240);"></path>
    <path class="raiz" d="M114.846 79.7992C103.799 101.892 101.958 120.303 100.117 124.906C90.9118 133.19 82.627 132.27 76.1832 129.508C72.5011 127.667 64.2163 122.144 52.2493 118.462C33.8385 111.097 25.5537 115.7 16.3484 119.382C20.0305 94.5278 13.5867 71.5144 12.6662 64.1501C11.7457 56.7858 5.30191 47.5804 10.8251 21.8054C16.3484 -3.9696 30.1564 -2.12853 30.1564 6.1563C30.1564 25.4876 42.1234 54.9447 52.2493 64.1501C62.3752 73.3555 66.9779 90.8457 70.66 89.9251C74.3422 89.0046 83.5475 86.243 90.9118 66.9117C96.435 49.4215 92.7529 23.6465 104.72 23.6465C113.925 22.726 128.654 52.1831 114.846 79.7992Z" stroke="black" stroke-width="0.7" stroke-linecap="round" stroke-linejoin="round" style="fill: rgb(245, 245, 220);"></path>
    <path d="M70.2953 189.795C70.5046 183.979 70.714 178.162 70.6473 174.68C70.5806 171.198 70.2376 170.051 69.8463 168.888C69.4551 167.725 69.0157 166.547 68.8709 165.505C68.7262 164.462 68.8763 163.556 69.0271 162.647" stroke="#4D4D4D" stroke-width="0.7" stroke-linecap="round" stroke-linejoin="round"></path>
    <path d="M29.429 187.59C29.6471 181.774 29.8652 175.958 30.1873 172.49C30.5094 169.022 30.9357 167.903 31.4112 166.772C31.8867 165.641 32.4115 164.498 32.6323 163.47C32.8532 162.441 32.77 161.525 32.6863 160.609" stroke="#4D4D4D" stroke-width="0.7" stroke-linecap="round" stroke-linejoin="round"></path>
</svg>