<svg data-id="65" width="126" height="238" viewBox="0 0 126 238" fill="none" xmlns="http://www.w3.org/2000/svg">
    <path class="raiz" d="M81.5198 13.2262C91.8298 18.3812 96.5553 55.264 97.1689 73.9816C94.4073 81.3459 74.1555 108.962 66.7912 109.883C64.0296 108.962 59.4269 104.359 47.46 83.187C64.0296 61.0941 73.082 36.0839 75.0761 26.1137C76.9171 16.9083 78.6291 11.7808 81.5198 13.2262Z" stroke="black" stroke-width="0.7" stroke-linecap="round" stroke-linejoin="round" style="fill: rgb(245, 245, 220);"></path>
    <path class="coroa" d="M114.659 177.082C108.768 168.245 105.76 157.751 105.454 154.069C99.9303 160.512 89.8044 161.433 75.9964 155.91C67.7116 153.148 63.4446 153.49 54.824 154.989C33.6517 158.671 22.6053 156.83 18.9231 152.228C-4.09031 167.877 -1.02186 200.709 4.19452 212.062C8.7972 237.837 27.2079 238.758 30.8901 236.917C32.7312 235.996 38.2544 229.553 47.4597 229.553C56.6651 229.553 56.6651 227.712 61.2678 225.87C78.758 242.44 91.6455 231.394 93.4866 231.394C95.3277 231.394 97.1687 231.394 99.0098 230.473C122.944 220.347 122.023 188.128 114.659 177.082Z" stroke="#030303" stroke-width="0.7" stroke-linecap="round" stroke-linejoin="round" style="fill: rgb(255, 255, 240);"></path>
    <path d="M60.9034 224.481C61.1128 218.665 61.3221 212.849 61.2554 209.366C61.1887 205.884 60.8457 204.737 60.4545 203.574C60.0632 202.411 59.6238 201.233 59.4791 200.191C59.3343 199.148 59.4845 198.242 59.6352 197.333" stroke="#4D4D4D" stroke-width="0.7" stroke-linecap="round" stroke-linejoin="round"></path>
    <path class="raiz" d="M76.9171 155.91C92.3821 163.274 105.454 157.751 105.454 152.227C105.454 131.055 110.056 123.691 110.977 121.85C111.898 120.009 127.547 92.3925 124.785 68.4585C122.023 44.5246 117.421 39.0014 115.58 32.5576C113.739 26.1139 105.454 16.9085 104.533 27.0344C104.533 52.8094 101.772 62.0148 99.9305 68.4585C98.0895 74.9023 71.3939 113.565 65.8707 109.883C60.3475 106.201 49.301 87.7898 43.7778 75.8228C32.7314 60.1737 34.5724 27.9549 35.493 17.829C36.4135 7.70312 35.493 -2.42279 29.9697 2.1799C-5.93118 44.5246 10.6385 108.962 14.3206 119.088C18.0028 129.214 16.1617 143.943 18.9233 152.227C20.7644 157.75 41.0162 157.751 48.3805 155.91C55.7448 154.068 66.7912 152.227 76.9171 155.91Z" stroke="#030303" stroke-width="0.7" stroke-linecap="round" stroke-linejoin="round" style="fill: rgb(245, 245, 220);"></path>
</svg>