<svg data-id='71' width="58" height="204" viewBox="0 0 58 204" fill="none" xmlns="http://www.w3.org/2000/svg">
    <path class="coroa" d="M49.1112 3.31786C62.367 18.7829 56.4755 45.9694 51.8728 57.6295C37.1442 94.451 18.7335 71.4376 9.52818 64.9938C1.24335 49.3447 3.08443 19.8875 1.24335 9.76162C-0.597721 -0.364283 10.4487 0.556247 19.6541 1.47678C28.8595 2.39732 41.747 -0.36429 49.1112 3.31786Z" stroke="black" stroke-width="0.7" stroke-linecap="round" stroke-linejoin="round"/>
    <path class="raiz" d="M50.032 108.259C52.9777 92.0575 52.4868 67.7553 51.8731 57.6294C37.1445 91.6893 23.3364 74.1991 9.52839 64.9937C12.29 75.1196 15.9721 134.954 15.9721 139.557C15.9721 144.16 23.3364 186.505 27.0186 193.869C30.7007 201.233 38.065 208.597 40.8266 195.71C38.9856 168.094 46.3499 128.511 50.032 108.259Z" stroke="black" stroke-width="0.7" stroke-linecap="round" stroke-linejoin="round"/>
</svg>