<svg data-id='72' width="74" height="217" viewBox="0 0 74 217" fill="none" xmlns="http://www.w3.org/2000/svg">
    <path class="raiz" d="M60.1999 96.493C60.1999 90.0493 59.2794 80.8439 62.041 72.5591C35.3455 91.8904 21.5374 72.5591 14.1731 68.877C12.332 72.5591 15.0936 104.778 16.0142 116.745C16.9347 128.712 26.1401 167.374 28.9017 174.739C31.6633 182.103 35.3455 201.434 40.8687 210.64C46.3919 219.845 50.9946 216.163 51.9151 213.401C52.8356 210.64 50.9946 197.752 52.8356 190.388C62.041 163.692 60.1999 102.937 60.1999 96.493Z" stroke="black" stroke-width="0.7" stroke-linecap="round" stroke-linejoin="round"/>
    <path class="coroa" d="M72.167 23.7708C77.6902 49.5458 62.9616 69.7976 62.9616 71.6387C39.0276 90.9699 22.4579 75.3208 14.1731 68.8771C4.96774 50.4663 2.20613 29.294 1.2856 14.5654C0.365059 -0.163173 13.2526 -0.163173 18.7758 2.59844C24.299 5.36005 47.3124 7.20112 53.7562 7.20112C60.1999 7.20112 69.4053 9.04219 72.167 23.7708Z" stroke="black" stroke-width="0.7" stroke-linecap="round" stroke-linejoin="round"/>
</svg>