<svg data-id='73' width="82" height="246" viewBox="0 0 82 246" fill="none" xmlns="http://www.w3.org/2000/svg">
    <path class="raiz" d="M68.7189 128.512C67.7983 101.817 69.6394 91.6909 73.3215 77.8828C36.5001 112.863 30.0563 89.8498 14.4072 84.3266C18.0893 100.896 19.9304 117.466 21.7715 138.638C26.3742 157.049 26.3742 187.427 28.2152 200.314C30.0563 213.202 34.659 218.725 39.2617 234.374C43.8644 250.023 54.9108 245.42 54.9108 239.897C54.9108 234.374 56.7519 204.917 56.7519 204.917C56.7519 204.917 65.9572 161.652 68.7189 128.512Z" stroke="black" stroke-width="0.7" stroke-linecap="round" stroke-linejoin="round"/>
    <path class="coroa" d="M78.845 31.8561C85.4729 43.639 77.9245 67.4502 73.3218 77.8829C36.5003 112.863 30.0565 88.9294 14.4074 84.3267C8.8842 79.724 12.5663 77.8829 7.04312 63.1544C-5.84438 32.7766 3.36098 28.174 7.04312 23.5713C10.7253 18.9686 24.5333 7.00161 27.2949 5.16054C30.0565 3.31947 38.3414 -1.28322 44.7851 1.47839C51.2289 4.24 55.8316 9.76322 62.2753 10.6838C68.7191 11.6043 70.5602 17.1275 78.845 31.8561Z" stroke="black" stroke-width="0.7" stroke-linecap="round" stroke-linejoin="round"/>
</svg>