<svg data-id='74' width="135" height="218" viewBox="0 0 135 218" fill="none" xmlns="http://www.w3.org/2000/svg">
    <path class="raiz" d="M119.335 114.746C117.126 101.491 116.574 78.5386 116.574 68.7195C85.2757 66.8784 89.8783 72.4017 67.7854 80.6865C45.6925 88.9713 30.0434 88.0508 18.0764 84.3686C19.9175 91.7329 18.0764 147.886 18.0764 158.932C18.0764 169.979 26.3612 223.37 34.6461 216.005C42.9309 208.641 42.0104 197.595 42.9309 169.979C43.8514 142.362 59.5005 114.746 61.3416 111.064C63.1827 107.382 65.9443 104.62 71.4675 108.303C76.9907 111.985 83.4345 125.793 89.8783 138.68C99.0836 148.806 121.177 198.515 122.097 199.436C123.018 200.356 128.541 211.403 132.223 203.118C135.905 194.833 134.064 179.184 132.223 166.296C130.382 153.409 122.097 131.316 119.335 114.746Z" stroke="black" stroke-width="0.7" stroke-linecap="round" stroke-linejoin="round"/>
    <path class="coroa" d="M116.574 23.6132C136.458 40.5511 124.859 60.7415 116.574 68.7195C88.0373 67.7989 94.7321 68.7195 69.6266 79.7659C52.8895 87.1302 31.8846 88.9713 18.0765 84.3686C0.586327 70.5605 -2.17528 38.3418 2.4274 30.9775C7.95061 24.5337 22.6792 11.6462 27.2819 9.80513C31.8846 7.96405 32.8051 10.7257 37.4078 8.88459C45.6926 -1.24131 51.2158 0.599766 54.898 2.44084C58.5801 4.28191 60.4212 9.80513 64.1034 11.6462C67.7855 13.4873 76.0703 12.5667 84.3552 8.88459C92.64 5.20245 97.2427 6.12298 100.004 8.88459C102.766 11.6462 106.448 16.2489 116.574 23.6132Z" stroke="black" stroke-width="0.7" stroke-linecap="round" stroke-linejoin="round"/>
    <path d="M67.39 27.3383C67.3901 31.432 67.2452 29.7934 67.3923 33.2731C67.5394 36.7528 68.0306 36.1239 68.4486 37.2774C68.8666 38.4309 69.3331 39.5987 69.5019 40.6374C69.6707 41.6761 69.5415 42.5861 69.4117 43.4974" stroke="#4D4D4D" stroke-width="0.7" stroke-linecap="round" stroke-linejoin="round"/>
    <path d="M101.845 14.408C92.6399 11.6464 76.9908 17.1697 67.7855 27.2956C60.4212 29.1366 56.7391 21.7723 52.1364 18.0902C47.5337 14.408 45.6928 13.4875 35.5667 11.6464" stroke="#4D4D4D" stroke-width="0.7" stroke-linecap="round" stroke-linejoin="round"/>
</svg>