<svg data-id='75' width="145" height="240" viewBox="0 0 145 240" fill="none" xmlns="http://www.w3.org/2000/svg">
    <path class="raiz" d="M131.129 132.41C123.765 108.108 124.379 86.6897 125.606 79.0186C121.924 79.0186 112.911 80.3633 105.354 81.7802C90.6255 84.5418 84.1817 92.3006 67.6121 94.6677C48.2808 97.4293 21.5853 81.7802 16.062 79.0186C17.9031 81.7802 17.9031 121.363 7.77721 157.264C2.25391 185.801 0.412827 208.814 3.17444 219.861C4.09497 226.304 17.903 248.397 21.5853 234.589C28.0289 202.37 29.87 192.552 34.4728 184.88C37.2344 180.278 40.9165 176.595 50.1219 160.946C59.3273 145.297 66.6916 136.092 75.8969 137.933C97.9898 143.456 116.401 180.278 120.083 192.245C122.844 197.768 125.606 230.907 133.891 219.861C144.937 199.609 140.335 162.787 131.129 132.41Z" stroke="black" stroke-width="0.7" stroke-linecap="round" stroke-linejoin="round"/>
    <path class="coroa" d="M125.512 12.7399C135.039 6.20647 139.804 9.93449 143.096 17.3426C147.515 40.1719 133.277 68.279 125.606 79.0186C114.56 79.9391 105.354 81.7802 99.8311 83.6213C89.7052 85.4623 85.1025 91.9061 68.5329 94.6677C45.5194 97.4293 30.7908 85.4623 16.0623 79.0186C4.09528 72.5748 -5.11009 39.4355 4.09528 22.8658C9.89116 12.4333 22.6205 7.10955 33.5525 6.20544M125.512 12.7399C124.385 13.5131 123.19 14.43 121.924 15.5015C120.083 16.4221 120.083 17.3426 109.036 9.05779C97.0695 1.86722 84.182 9.05779 66.6918 17.3426C61.1686 19.1837 58.4069 15.5015 49.2016 9.05779C45.7921 6.67115 39.9833 5.67359 33.5525 6.20544M125.512 12.7399C122.168 8.75094 113.639 0.772955 106.275 0.772955C97.0695 0.772955 85.1025 5.37564 82.3409 5.37564C79.5793 5.37564 73.1355 6.29618 63.0096 2.61403C52.8837 -1.06812 44.5989 0.591489 33.5525 6.20544" stroke="black" stroke-width="0.7" stroke-linecap="round" stroke-linejoin="round"/>
    <path d="M120.083 16.4222C120.008 22.2412 119.936 21.2273 120.083 24.7071C120.23 28.1868 120.599 29.3257 121.017 30.4792C121.435 31.6327 121.902 32.8005 122.071 33.8392C122.239 34.8779 122.11 35.788 121.98 36.6992" stroke="#4D4D4D" stroke-width="0.7" stroke-linecap="round" stroke-linejoin="round"/>
    <path d="M63.659 17.8515C63.6592 21.9452 63.5142 20.3065 63.6613 23.7863C63.8085 27.266 64.2997 26.6371 64.7177 27.7906C65.1356 28.944 65.6022 30.1119 65.7709 31.1506C65.9397 32.1892 65.8106 33.0993 65.6808 34.0106" stroke="#4D4D4D" stroke-width="0.7" stroke-linecap="round" stroke-linejoin="round"/>
</svg>