<svg data-id="81" width="58" height="204" viewBox="0 0 58 204" fill="none" xmlns="http://www.w3.org/2000/svg">
    <path class="coroa" d="M8.96933 3.31786C-4.2864 18.7829 1.60504 45.9694 6.20772 57.6295C20.9363 94.451 39.347 71.4376 48.5524 64.9938C56.8372 49.3447 54.9961 19.8875 56.8372 9.76162C58.6783 -0.364283 47.6318 0.556247 38.4265 1.47678C29.2211 2.39732 16.3336 -0.36429 8.96933 3.31786Z" stroke="black" stroke-width="0.7" stroke-linecap="round" stroke-linejoin="round" style="fill: rgb(255, 255, 240);"></path>
    <path class="raiz" d="M8.04855 108.259C5.10284 92.0575 5.59379 67.7553 6.20748 57.6294C20.9361 91.6893 34.7441 74.1991 48.5522 64.9937C45.7906 75.1196 42.1084 134.954 42.1084 139.557C42.1084 144.16 34.7441 186.505 31.062 193.869C27.3798 201.233 20.0155 208.597 17.2539 195.71C19.095 168.094 11.7307 128.511 8.04855 108.259Z" stroke="black" stroke-width="0.7" stroke-linecap="round" stroke-linejoin="round" style="fill: rgb(245, 245, 220);"></path>
</svg>