<svg data-id='82'  width="74" height="217" viewBox="0 0 74 217" fill="none" xmlns="http://www.w3.org/2000/svg">
    <path class="raiz" d="M13.8806 96.493C13.8806 90.0493 14.8012 80.8439 12.0396 72.5591C38.7351 91.8904 52.5432 72.5591 59.9075 68.877C61.7485 72.5591 58.9869 104.778 58.0664 116.745C57.1458 128.712 47.9405 167.374 45.1789 174.739C42.4173 182.103 38.7351 201.434 33.2119 210.64C27.6887 219.845 23.086 216.163 22.1655 213.401C21.2449 210.64 23.086 197.752 21.2449 190.388C12.0396 163.692 13.8806 102.937 13.8806 96.493Z" stroke="black" stroke-width="0.7" stroke-linecap="round" stroke-linejoin="round"/>
    <path class="coroa" d="M1.91359 23.7708C-3.60962 49.5458 11.119 69.7976 11.119 71.6387C35.053 90.9699 51.6226 75.3208 59.9075 68.8771C69.1128 50.4663 71.8744 29.294 72.795 14.5654C73.7155 -0.163173 60.828 -0.163173 55.3048 2.59844C49.7815 5.36005 26.7681 7.20112 20.3244 7.20112C13.8806 7.20112 4.67525 9.04219 1.91359 23.7708Z" stroke="black" stroke-width="0.7" stroke-linecap="round" stroke-linejoin="round"/>
</svg>