<svg data-id='83'  width="83" height="246" viewBox="0 0 83 246" fill="none" xmlns="http://www.w3.org/2000/svg">
    <path class="raiz" d="M13.3617 128.512C14.2823 101.817 12.4412 91.6909 8.75903 77.8828C45.5805 112.863 52.0243 89.8498 67.6734 84.3266C63.9912 100.896 62.1502 117.466 60.3091 138.638C55.7064 157.049 55.7064 187.427 53.8653 200.314C52.0243 213.202 47.4216 218.725 42.8189 234.374C38.2162 250.023 27.1698 245.42 27.1698 239.897C27.1698 234.374 25.3287 204.917 25.3287 204.917C25.3287 204.917 16.1233 161.652 13.3617 128.512Z" stroke="black" stroke-width="0.7" stroke-linecap="round" stroke-linejoin="round"/>
    <path class="coroa" d="M3.23555 31.8561C-3.39231 43.639 4.15609 67.4502 8.75877 77.8829C45.5803 112.863 52.024 88.9294 67.6731 84.3267C73.1964 79.724 69.5142 77.8829 75.0374 63.1544C87.9249 32.7766 78.7196 28.174 75.0374 23.5713C71.3553 18.9686 57.5472 7.00161 54.7856 5.16054C52.024 3.31947 43.7392 -1.28322 37.2954 1.47839C30.8517 4.24 26.249 9.76322 19.8052 10.6838C13.3615 11.6043 11.5204 17.1275 3.23555 31.8561Z" stroke="black" stroke-width="0.7" stroke-linecap="round" stroke-linejoin="round"/>
</svg>