<svg data-id="84" width="135" height="218" viewBox="0 0 135 218" fill="none" xmlns="http://www.w3.org/2000/svg">
    <path class="raiz" d="M15.7451 114.746C17.9544 101.491 18.5067 78.5386 18.5067 68.7195C49.8049 66.8784 45.2023 72.4017 67.2952 80.6865C89.3881 88.9713 105.037 88.0508 117.004 84.3686C115.163 91.7329 117.004 147.886 117.004 158.932C117.004 169.979 108.719 223.37 100.435 216.005C92.1497 208.641 93.0702 197.595 92.1497 169.979C91.2291 142.362 75.58 114.746 73.7389 111.064C71.8979 107.382 69.1363 104.62 63.613 108.303C58.0898 111.985 51.6461 125.793 45.2023 138.68C35.9969 148.806 13.9041 198.515 12.9835 199.436C12.063 200.356 6.53972 211.403 2.85758 203.118C-0.824569 194.833 1.0165 179.184 2.85758 166.296C4.69865 153.409 12.9835 131.316 15.7451 114.746Z" stroke="black" stroke-width="0.7" stroke-linecap="round" stroke-linejoin="round" style="fill: rgb(245, 245, 220);"></path>
    <path class="coroa" d="M18.5066 23.6132C-1.377 40.5511 10.2218 60.7415 18.5066 68.7195C47.0433 67.7989 40.3484 68.7195 65.454 79.7659C82.191 87.1302 103.196 88.9713 117.004 84.3686C134.494 70.5605 137.256 38.3418 132.653 30.9775C127.13 24.5337 112.401 11.6462 107.799 9.80513C103.196 7.96405 102.275 10.7257 97.6728 8.88459C89.3879 -1.24131 83.8647 0.599766 80.1826 2.44084C76.5004 4.28191 74.6594 9.80513 70.9772 11.6462C67.2951 13.4873 59.0102 12.5667 50.7254 8.88459C42.4406 5.20245 37.8379 6.12298 35.0763 8.88459C32.3147 11.6462 28.6325 16.2489 18.5066 23.6132Z" stroke="black" stroke-width="0.7" stroke-linecap="round" stroke-linejoin="round" style="fill: rgb(255, 255, 240);"></path>
    <path d="M67.6906 27.3383C67.6904 31.432 67.8354 29.7934 67.6883 33.2731C67.5411 36.7528 67.0499 36.1239 66.632 37.2774C66.214 38.4309 65.7474 39.5987 65.5787 40.6374C65.4099 41.6761 65.5391 42.5861 65.6688 43.4974" stroke="#4D4D4D" stroke-width="0.7" stroke-linecap="round" stroke-linejoin="round"></path>
    <path d="M33.2352 14.408C42.4407 11.6464 58.0897 17.1697 67.295 27.2956C74.6594 29.1366 78.3415 21.7723 82.9442 18.0902C87.5468 14.408 89.3878 13.4875 99.5139 11.6464" stroke="#4D4D4D" stroke-width="0.7" stroke-linecap="round" stroke-linejoin="round"></path>
</svg>