<svg data-id="85" width="146" height="240" viewBox="0 0 146 240" fill="none" xmlns="http://www.w3.org/2000/svg">
    <path class="raiz" d="M13.9507 132.41C21.315 108.108 20.7013 86.6897 19.4739 79.0186C23.1561 79.0186 32.1689 80.3633 39.7257 81.7802C54.4543 84.5418 60.8981 92.3006 77.4678 94.6677C96.799 97.4293 123.495 81.7802 129.018 79.0186C127.177 81.7802 127.177 121.363 137.303 157.264C142.826 185.801 144.667 208.814 141.905 219.861C140.985 226.304 127.177 248.397 123.495 234.589C117.051 202.37 115.21 192.552 110.607 184.88C107.845 180.278 104.163 176.595 94.9579 160.946C85.7526 145.297 78.3883 136.092 69.1829 137.933C47.09 143.456 28.6793 180.278 24.9972 192.245C22.2355 197.768 19.4739 230.907 11.1891 219.861C0.142748 199.609 4.74531 162.787 13.9507 132.41Z" stroke="black" stroke-width="0.7" stroke-linecap="round" stroke-linejoin="round" style="fill: rgb(245, 245, 220);"></path>
    <path class="coroa" d="M19.5683 12.7399C10.0411 6.20647 5.2765 9.93449 1.98391 17.3426C-2.43467 40.1719 11.8031 68.279 19.4742 79.0186C30.5206 79.9391 39.726 81.7802 45.2492 83.6213C55.3751 85.4623 59.9778 91.9061 76.5475 94.6677C99.5609 97.4293 114.289 85.4623 129.018 79.0186C140.985 72.5748 150.19 39.4355 140.985 22.8658C135.189 12.4333 122.46 7.10955 111.528 6.20544M19.5683 12.7399C20.6958 13.5131 21.89 14.43 23.1563 15.5015C24.9974 16.4221 24.9974 17.3426 36.0439 9.05779C48.0108 1.86722 60.8984 9.05779 78.3885 17.3426C83.9118 19.1837 86.6734 15.5015 95.8787 9.05779C99.2882 6.67115 105.097 5.67359 111.528 6.20544M19.5683 12.7399C22.9123 8.75094 31.4412 0.772955 38.8055 0.772955C48.0108 0.772955 59.9778 5.37564 62.7394 5.37564C65.501 5.37564 71.9448 6.29618 82.0707 2.61403C92.1966 -1.06812 100.481 0.591489 111.528 6.20544" stroke="black" stroke-width="0.7" stroke-linecap="round" stroke-linejoin="round" style="fill: rgb(255, 255, 240);"></path>
    <path d="M81.4211 17.8515C81.4209 21.9452 81.5658 20.3065 81.4187 23.7863C81.2716 27.266 80.7804 26.6371 80.3624 27.7906C79.9444 28.944 79.4779 30.1119 79.3091 31.1506C79.1403 32.1892 79.2695 33.0993 79.3993 34.0106" stroke="#4D4D4D" stroke-width="0.7" stroke-linecap="round" stroke-linejoin="round"></path>
    <path d="M24.9975 16.4222C25.0724 22.2412 25.1447 21.2273 24.9975 24.7071C24.8504 28.1868 24.481 29.3257 24.063 30.4792C23.645 31.6327 23.1785 32.8005 23.0097 33.8392C22.8409 34.8779 22.9701 35.788 23.0999 36.6992" stroke="#4D4D4D" stroke-width="0.7" stroke-linecap="round" stroke-linejoin="round"></path>
</svg>